M48
; DRILL file {KiCad 7.0.7} date Sat May  4 12:15:19 2024
; FORMAT={-:-/ absolute / inch / decimal}
; #@! TF.CreationDate,2024-05-04T12:15:19+03:00
; #@! TF.GenerationSoftware,Kicad,Pcbnew,7.0.7
; #@! TF.FileFunction,Plated,1,2,PTH
FMAT,2
INCH
; #@! TA.AperFunction,Plated,PTH,ComponentDrill
T1C0.0295
; #@! TA.AperFunction,Plated,PTH,ComponentDrill
T2C0.0315
; #@! TA.AperFunction,Plated,PTH,ComponentDrill
T3C0.0354
; #@! TA.AperFunction,Plated,PTH,ComponentDrill
T4C0.0598
%
G90
G05
T1
X5.05Y-4.37
X5.05Y-4.45
X5.052Y-4.528
X6.5Y-4.4
X6.5Y-4.478
X6.5Y-4.55
T2
X5.3Y-3.8
X5.3Y-4.2
X5.5Y-3.3
X5.6Y-3.1
X5.6016Y-4.2
X5.7Y-3.3
X5.7Y-3.5
X5.7Y-3.9
X5.7Y-4.2
X6.1Y-3.3
X6.1Y-3.5
X6.1Y-3.9
X6.1016Y-4.2
X6.2Y-3.1
X6.2Y-4.2
X6.3Y-3.3
X6.5Y-3.8
X6.5Y-4.2
T3
X5.2689Y-3.5
X5.2689Y-3.6
X6.5311Y-3.5
X6.5311Y-3.6
T4
X4.95Y-3.9
X4.95Y-4.1
T0
M30
