%TF.GenerationSoftware,KiCad,Pcbnew,7.0.7*%
%TF.CreationDate,2024-05-03T12:55:33+03:00*%
%TF.ProjectId,Flip-Flop_lab_project,466c6970-2d46-46c6-9f70-5f6c61625f70,rev?*%
%TF.SameCoordinates,Original*%
%TF.FileFunction,Copper,L1,Top*%
%TF.FilePolarity,Positive*%
%FSLAX46Y46*%
G04 Gerber Fmt 4.6, Leading zero omitted, Abs format (unit mm)*
G04 Created by KiCad (PCBNEW 7.0.7) date 2024-05-03 12:55:33*
%MOMM*%
%LPD*%
G01*
G04 APERTURE LIST*
%ADD10C,0.300000*%
%TA.AperFunction,NonConductor*%
%ADD11C,0.300000*%
%TD*%
%TA.AperFunction,ComponentPad*%
%ADD12C,1.600000*%
%TD*%
%TA.AperFunction,ComponentPad*%
%ADD13O,1.600000X1.600000*%
%TD*%
%TA.AperFunction,ComponentPad*%
%ADD14R,1.500000X1.050000*%
%TD*%
%TA.AperFunction,ComponentPad*%
%ADD15O,1.500000X1.050000*%
%TD*%
%TA.AperFunction,ComponentPad*%
%ADD16C,1.440000*%
%TD*%
%TA.AperFunction,ComponentPad*%
%ADD17R,1.600000X1.600000*%
%TD*%
%TA.AperFunction,ComponentPad*%
%ADD18R,1.800000X1.800000*%
%TD*%
%TA.AperFunction,ComponentPad*%
%ADD19C,1.800000*%
%TD*%
%TA.AperFunction,ComponentPad*%
%ADD20R,3.000000X3.000000*%
%TD*%
%TA.AperFunction,ComponentPad*%
%ADD21C,3.000000*%
%TD*%
G04 APERTURE END LIST*
D10*
D11*
X177013082Y-75822257D02*
X177727368Y-75822257D01*
X176870225Y-76250828D02*
X177370225Y-74750828D01*
X177370225Y-74750828D02*
X177870225Y-76250828D01*
X178370224Y-76250828D02*
X178370224Y-74750828D01*
X179013082Y-76250828D02*
X179013082Y-75465114D01*
X179013082Y-75465114D02*
X178941653Y-75322257D01*
X178941653Y-75322257D02*
X178798796Y-75250828D01*
X178798796Y-75250828D02*
X178584510Y-75250828D01*
X178584510Y-75250828D02*
X178441653Y-75322257D01*
X178441653Y-75322257D02*
X178370224Y-75393685D01*
X179727367Y-76250828D02*
X179727367Y-75250828D01*
X179727367Y-75393685D02*
X179798796Y-75322257D01*
X179798796Y-75322257D02*
X179941653Y-75250828D01*
X179941653Y-75250828D02*
X180155939Y-75250828D01*
X180155939Y-75250828D02*
X180298796Y-75322257D01*
X180298796Y-75322257D02*
X180370225Y-75465114D01*
X180370225Y-75465114D02*
X180370225Y-76250828D01*
X180370225Y-75465114D02*
X180441653Y-75322257D01*
X180441653Y-75322257D02*
X180584510Y-75250828D01*
X180584510Y-75250828D02*
X180798796Y-75250828D01*
X180798796Y-75250828D02*
X180941653Y-75322257D01*
X180941653Y-75322257D02*
X181013082Y-75465114D01*
X181013082Y-75465114D02*
X181013082Y-76250828D01*
X182298796Y-76179400D02*
X182155939Y-76250828D01*
X182155939Y-76250828D02*
X181870225Y-76250828D01*
X181870225Y-76250828D02*
X181727367Y-76179400D01*
X181727367Y-76179400D02*
X181655939Y-76036542D01*
X181655939Y-76036542D02*
X181655939Y-75465114D01*
X181655939Y-75465114D02*
X181727367Y-75322257D01*
X181727367Y-75322257D02*
X181870225Y-75250828D01*
X181870225Y-75250828D02*
X182155939Y-75250828D01*
X182155939Y-75250828D02*
X182298796Y-75322257D01*
X182298796Y-75322257D02*
X182370225Y-75465114D01*
X182370225Y-75465114D02*
X182370225Y-75607971D01*
X182370225Y-75607971D02*
X181655939Y-75750828D01*
X182798796Y-75250828D02*
X183370224Y-75250828D01*
X183013081Y-74750828D02*
X183013081Y-76036542D01*
X183013081Y-76036542D02*
X183084510Y-76179400D01*
X183084510Y-76179400D02*
X183227367Y-76250828D01*
X183227367Y-76250828D02*
X183370224Y-76250828D01*
X184798796Y-74750828D02*
X185655939Y-74750828D01*
X185227367Y-76250828D02*
X185227367Y-74750828D01*
X186798796Y-76250828D02*
X186798796Y-75465114D01*
X186798796Y-75465114D02*
X186727367Y-75322257D01*
X186727367Y-75322257D02*
X186584510Y-75250828D01*
X186584510Y-75250828D02*
X186298796Y-75250828D01*
X186298796Y-75250828D02*
X186155938Y-75322257D01*
X186798796Y-76179400D02*
X186655938Y-76250828D01*
X186655938Y-76250828D02*
X186298796Y-76250828D01*
X186298796Y-76250828D02*
X186155938Y-76179400D01*
X186155938Y-76179400D02*
X186084510Y-76036542D01*
X186084510Y-76036542D02*
X186084510Y-75893685D01*
X186084510Y-75893685D02*
X186155938Y-75750828D01*
X186155938Y-75750828D02*
X186298796Y-75679400D01*
X186298796Y-75679400D02*
X186655938Y-75679400D01*
X186655938Y-75679400D02*
X186798796Y-75607971D01*
X187513081Y-75250828D02*
X187513081Y-76250828D01*
X187513081Y-75393685D02*
X187584510Y-75322257D01*
X187584510Y-75322257D02*
X187727367Y-75250828D01*
X187727367Y-75250828D02*
X187941653Y-75250828D01*
X187941653Y-75250828D02*
X188084510Y-75322257D01*
X188084510Y-75322257D02*
X188155939Y-75465114D01*
X188155939Y-75465114D02*
X188155939Y-76250828D01*
X189441653Y-76179400D02*
X189298796Y-76250828D01*
X189298796Y-76250828D02*
X189013082Y-76250828D01*
X189013082Y-76250828D02*
X188870224Y-76179400D01*
X188870224Y-76179400D02*
X188798796Y-76036542D01*
X188798796Y-76036542D02*
X188798796Y-75465114D01*
X188798796Y-75465114D02*
X188870224Y-75322257D01*
X188870224Y-75322257D02*
X189013082Y-75250828D01*
X189013082Y-75250828D02*
X189298796Y-75250828D01*
X189298796Y-75250828D02*
X189441653Y-75322257D01*
X189441653Y-75322257D02*
X189513082Y-75465114D01*
X189513082Y-75465114D02*
X189513082Y-75607971D01*
X189513082Y-75607971D02*
X188798796Y-75750828D01*
X190155938Y-76250828D02*
X190155938Y-75250828D01*
X190155938Y-75536542D02*
X190227367Y-75393685D01*
X190227367Y-75393685D02*
X190298796Y-75322257D01*
X190298796Y-75322257D02*
X190441653Y-75250828D01*
X190441653Y-75250828D02*
X190584510Y-75250828D01*
X192155938Y-74893685D02*
X192227366Y-74822257D01*
X192227366Y-74822257D02*
X192370224Y-74750828D01*
X192370224Y-74750828D02*
X192727366Y-74750828D01*
X192727366Y-74750828D02*
X192870224Y-74822257D01*
X192870224Y-74822257D02*
X192941652Y-74893685D01*
X192941652Y-74893685D02*
X193013081Y-75036542D01*
X193013081Y-75036542D02*
X193013081Y-75179400D01*
X193013081Y-75179400D02*
X192941652Y-75393685D01*
X192941652Y-75393685D02*
X192084509Y-76250828D01*
X192084509Y-76250828D02*
X193013081Y-76250828D01*
X193584509Y-74893685D02*
X193655937Y-74822257D01*
X193655937Y-74822257D02*
X193798795Y-74750828D01*
X193798795Y-74750828D02*
X194155937Y-74750828D01*
X194155937Y-74750828D02*
X194298795Y-74822257D01*
X194298795Y-74822257D02*
X194370223Y-74893685D01*
X194370223Y-74893685D02*
X194441652Y-75036542D01*
X194441652Y-75036542D02*
X194441652Y-75179400D01*
X194441652Y-75179400D02*
X194370223Y-75393685D01*
X194370223Y-75393685D02*
X193513080Y-76250828D01*
X193513080Y-76250828D02*
X194441652Y-76250828D01*
X195870223Y-76250828D02*
X195013080Y-76250828D01*
X195441651Y-76250828D02*
X195441651Y-74750828D01*
X195441651Y-74750828D02*
X195298794Y-74965114D01*
X195298794Y-74965114D02*
X195155937Y-75107971D01*
X195155937Y-75107971D02*
X195013080Y-75179400D01*
X196798794Y-74750828D02*
X196941651Y-74750828D01*
X196941651Y-74750828D02*
X197084508Y-74822257D01*
X197084508Y-74822257D02*
X197155937Y-74893685D01*
X197155937Y-74893685D02*
X197227365Y-75036542D01*
X197227365Y-75036542D02*
X197298794Y-75322257D01*
X197298794Y-75322257D02*
X197298794Y-75679400D01*
X197298794Y-75679400D02*
X197227365Y-75965114D01*
X197227365Y-75965114D02*
X197155937Y-76107971D01*
X197155937Y-76107971D02*
X197084508Y-76179400D01*
X197084508Y-76179400D02*
X196941651Y-76250828D01*
X196941651Y-76250828D02*
X196798794Y-76250828D01*
X196798794Y-76250828D02*
X196655937Y-76179400D01*
X196655937Y-76179400D02*
X196584508Y-76107971D01*
X196584508Y-76107971D02*
X196513079Y-75965114D01*
X196513079Y-75965114D02*
X196441651Y-75679400D01*
X196441651Y-75679400D02*
X196441651Y-75322257D01*
X196441651Y-75322257D02*
X196513079Y-75036542D01*
X196513079Y-75036542D02*
X196584508Y-74893685D01*
X196584508Y-74893685D02*
X196655937Y-74822257D01*
X196655937Y-74822257D02*
X196798794Y-74750828D01*
X198227365Y-74750828D02*
X198370222Y-74750828D01*
X198370222Y-74750828D02*
X198513079Y-74822257D01*
X198513079Y-74822257D02*
X198584508Y-74893685D01*
X198584508Y-74893685D02*
X198655936Y-75036542D01*
X198655936Y-75036542D02*
X198727365Y-75322257D01*
X198727365Y-75322257D02*
X198727365Y-75679400D01*
X198727365Y-75679400D02*
X198655936Y-75965114D01*
X198655936Y-75965114D02*
X198584508Y-76107971D01*
X198584508Y-76107971D02*
X198513079Y-76179400D01*
X198513079Y-76179400D02*
X198370222Y-76250828D01*
X198370222Y-76250828D02*
X198227365Y-76250828D01*
X198227365Y-76250828D02*
X198084508Y-76179400D01*
X198084508Y-76179400D02*
X198013079Y-76107971D01*
X198013079Y-76107971D02*
X197941650Y-75965114D01*
X197941650Y-75965114D02*
X197870222Y-75679400D01*
X197870222Y-75679400D02*
X197870222Y-75322257D01*
X197870222Y-75322257D02*
X197941650Y-75036542D01*
X197941650Y-75036542D02*
X198013079Y-74893685D01*
X198013079Y-74893685D02*
X198084508Y-74822257D01*
X198084508Y-74822257D02*
X198227365Y-74750828D01*
X200084507Y-74750828D02*
X199370221Y-74750828D01*
X199370221Y-74750828D02*
X199298793Y-75465114D01*
X199298793Y-75465114D02*
X199370221Y-75393685D01*
X199370221Y-75393685D02*
X199513079Y-75322257D01*
X199513079Y-75322257D02*
X199870221Y-75322257D01*
X199870221Y-75322257D02*
X200013079Y-75393685D01*
X200013079Y-75393685D02*
X200084507Y-75465114D01*
X200084507Y-75465114D02*
X200155936Y-75607971D01*
X200155936Y-75607971D02*
X200155936Y-75965114D01*
X200155936Y-75965114D02*
X200084507Y-76107971D01*
X200084507Y-76107971D02*
X200013079Y-76179400D01*
X200013079Y-76179400D02*
X199870221Y-76250828D01*
X199870221Y-76250828D02*
X199513079Y-76250828D01*
X199513079Y-76250828D02*
X199370221Y-76179400D01*
X199370221Y-76179400D02*
X199298793Y-76107971D01*
X201084507Y-74750828D02*
X201227364Y-74750828D01*
X201227364Y-74750828D02*
X201370221Y-74822257D01*
X201370221Y-74822257D02*
X201441650Y-74893685D01*
X201441650Y-74893685D02*
X201513078Y-75036542D01*
X201513078Y-75036542D02*
X201584507Y-75322257D01*
X201584507Y-75322257D02*
X201584507Y-75679400D01*
X201584507Y-75679400D02*
X201513078Y-75965114D01*
X201513078Y-75965114D02*
X201441650Y-76107971D01*
X201441650Y-76107971D02*
X201370221Y-76179400D01*
X201370221Y-76179400D02*
X201227364Y-76250828D01*
X201227364Y-76250828D02*
X201084507Y-76250828D01*
X201084507Y-76250828D02*
X200941650Y-76179400D01*
X200941650Y-76179400D02*
X200870221Y-76107971D01*
X200870221Y-76107971D02*
X200798792Y-75965114D01*
X200798792Y-75965114D02*
X200727364Y-75679400D01*
X200727364Y-75679400D02*
X200727364Y-75322257D01*
X200727364Y-75322257D02*
X200798792Y-75036542D01*
X200798792Y-75036542D02*
X200870221Y-74893685D01*
X200870221Y-74893685D02*
X200941650Y-74822257D01*
X200941650Y-74822257D02*
X201084507Y-74750828D01*
X202084506Y-74750828D02*
X203084506Y-74750828D01*
X203084506Y-74750828D02*
X202441649Y-76250828D01*
X203727363Y-76250828D02*
X204013077Y-76250828D01*
X204013077Y-76250828D02*
X204155934Y-76179400D01*
X204155934Y-76179400D02*
X204227363Y-76107971D01*
X204227363Y-76107971D02*
X204370220Y-75893685D01*
X204370220Y-75893685D02*
X204441649Y-75607971D01*
X204441649Y-75607971D02*
X204441649Y-75036542D01*
X204441649Y-75036542D02*
X204370220Y-74893685D01*
X204370220Y-74893685D02*
X204298792Y-74822257D01*
X204298792Y-74822257D02*
X204155934Y-74750828D01*
X204155934Y-74750828D02*
X203870220Y-74750828D01*
X203870220Y-74750828D02*
X203727363Y-74822257D01*
X203727363Y-74822257D02*
X203655934Y-74893685D01*
X203655934Y-74893685D02*
X203584506Y-75036542D01*
X203584506Y-75036542D02*
X203584506Y-75393685D01*
X203584506Y-75393685D02*
X203655934Y-75536542D01*
X203655934Y-75536542D02*
X203727363Y-75607971D01*
X203727363Y-75607971D02*
X203870220Y-75679400D01*
X203870220Y-75679400D02*
X204155934Y-75679400D01*
X204155934Y-75679400D02*
X204298792Y-75607971D01*
X204298792Y-75607971D02*
X204370220Y-75536542D01*
X204370220Y-75536542D02*
X204441649Y-75393685D01*
X177584510Y-77880114D02*
X177798796Y-77951542D01*
X177798796Y-77951542D02*
X177870225Y-78022971D01*
X177870225Y-78022971D02*
X177941653Y-78165828D01*
X177941653Y-78165828D02*
X177941653Y-78380114D01*
X177941653Y-78380114D02*
X177870225Y-78522971D01*
X177870225Y-78522971D02*
X177798796Y-78594400D01*
X177798796Y-78594400D02*
X177655939Y-78665828D01*
X177655939Y-78665828D02*
X177084510Y-78665828D01*
X177084510Y-78665828D02*
X177084510Y-77165828D01*
X177084510Y-77165828D02*
X177584510Y-77165828D01*
X177584510Y-77165828D02*
X177727368Y-77237257D01*
X177727368Y-77237257D02*
X177798796Y-77308685D01*
X177798796Y-77308685D02*
X177870225Y-77451542D01*
X177870225Y-77451542D02*
X177870225Y-77594400D01*
X177870225Y-77594400D02*
X177798796Y-77737257D01*
X177798796Y-77737257D02*
X177727368Y-77808685D01*
X177727368Y-77808685D02*
X177584510Y-77880114D01*
X177584510Y-77880114D02*
X177084510Y-77880114D01*
X179155939Y-78594400D02*
X179013082Y-78665828D01*
X179013082Y-78665828D02*
X178727368Y-78665828D01*
X178727368Y-78665828D02*
X178584510Y-78594400D01*
X178584510Y-78594400D02*
X178513082Y-78451542D01*
X178513082Y-78451542D02*
X178513082Y-77880114D01*
X178513082Y-77880114D02*
X178584510Y-77737257D01*
X178584510Y-77737257D02*
X178727368Y-77665828D01*
X178727368Y-77665828D02*
X179013082Y-77665828D01*
X179013082Y-77665828D02*
X179155939Y-77737257D01*
X179155939Y-77737257D02*
X179227368Y-77880114D01*
X179227368Y-77880114D02*
X179227368Y-78022971D01*
X179227368Y-78022971D02*
X178513082Y-78165828D01*
X179870224Y-78665828D02*
X179870224Y-77665828D01*
X179870224Y-77951542D02*
X179941653Y-77808685D01*
X179941653Y-77808685D02*
X180013082Y-77737257D01*
X180013082Y-77737257D02*
X180155939Y-77665828D01*
X180155939Y-77665828D02*
X180298796Y-77665828D01*
X181370224Y-78594400D02*
X181227367Y-78665828D01*
X181227367Y-78665828D02*
X180941653Y-78665828D01*
X180941653Y-78665828D02*
X180798795Y-78594400D01*
X180798795Y-78594400D02*
X180727367Y-78451542D01*
X180727367Y-78451542D02*
X180727367Y-77880114D01*
X180727367Y-77880114D02*
X180798795Y-77737257D01*
X180798795Y-77737257D02*
X180941653Y-77665828D01*
X180941653Y-77665828D02*
X181227367Y-77665828D01*
X181227367Y-77665828D02*
X181370224Y-77737257D01*
X181370224Y-77737257D02*
X181441653Y-77880114D01*
X181441653Y-77880114D02*
X181441653Y-78022971D01*
X181441653Y-78022971D02*
X180727367Y-78165828D01*
X182084509Y-77665828D02*
X182084509Y-78665828D01*
X182084509Y-77808685D02*
X182155938Y-77737257D01*
X182155938Y-77737257D02*
X182298795Y-77665828D01*
X182298795Y-77665828D02*
X182513081Y-77665828D01*
X182513081Y-77665828D02*
X182655938Y-77737257D01*
X182655938Y-77737257D02*
X182727367Y-77880114D01*
X182727367Y-77880114D02*
X182727367Y-78665828D01*
X184084510Y-78594400D02*
X183941652Y-78665828D01*
X183941652Y-78665828D02*
X183655938Y-78665828D01*
X183655938Y-78665828D02*
X183513081Y-78594400D01*
X183513081Y-78594400D02*
X183441652Y-78522971D01*
X183441652Y-78522971D02*
X183370224Y-78380114D01*
X183370224Y-78380114D02*
X183370224Y-77951542D01*
X183370224Y-77951542D02*
X183441652Y-77808685D01*
X183441652Y-77808685D02*
X183513081Y-77737257D01*
X183513081Y-77737257D02*
X183655938Y-77665828D01*
X183655938Y-77665828D02*
X183941652Y-77665828D01*
X183941652Y-77665828D02*
X184084510Y-77737257D01*
X185370224Y-78665828D02*
X185370224Y-77880114D01*
X185370224Y-77880114D02*
X185298795Y-77737257D01*
X185298795Y-77737257D02*
X185155938Y-77665828D01*
X185155938Y-77665828D02*
X184870224Y-77665828D01*
X184870224Y-77665828D02*
X184727366Y-77737257D01*
X185370224Y-78594400D02*
X185227366Y-78665828D01*
X185227366Y-78665828D02*
X184870224Y-78665828D01*
X184870224Y-78665828D02*
X184727366Y-78594400D01*
X184727366Y-78594400D02*
X184655938Y-78451542D01*
X184655938Y-78451542D02*
X184655938Y-78308685D01*
X184655938Y-78308685D02*
X184727366Y-78165828D01*
X184727366Y-78165828D02*
X184870224Y-78094400D01*
X184870224Y-78094400D02*
X185227366Y-78094400D01*
X185227366Y-78094400D02*
X185370224Y-78022971D01*
X186084509Y-77665828D02*
X186084509Y-78665828D01*
X186084509Y-77808685D02*
X186155938Y-77737257D01*
X186155938Y-77737257D02*
X186298795Y-77665828D01*
X186298795Y-77665828D02*
X186513081Y-77665828D01*
X186513081Y-77665828D02*
X186655938Y-77737257D01*
X186655938Y-77737257D02*
X186727367Y-77880114D01*
X186727367Y-77880114D02*
X186727367Y-78665828D01*
X188584509Y-78665828D02*
X188584509Y-77165828D01*
X188584509Y-77165828D02*
X189155938Y-77165828D01*
X189155938Y-77165828D02*
X189298795Y-77237257D01*
X189298795Y-77237257D02*
X189370224Y-77308685D01*
X189370224Y-77308685D02*
X189441652Y-77451542D01*
X189441652Y-77451542D02*
X189441652Y-77665828D01*
X189441652Y-77665828D02*
X189370224Y-77808685D01*
X189370224Y-77808685D02*
X189298795Y-77880114D01*
X189298795Y-77880114D02*
X189155938Y-77951542D01*
X189155938Y-77951542D02*
X188584509Y-77951542D01*
X190655938Y-78594400D02*
X190513081Y-78665828D01*
X190513081Y-78665828D02*
X190227367Y-78665828D01*
X190227367Y-78665828D02*
X190084509Y-78594400D01*
X190084509Y-78594400D02*
X190013081Y-78451542D01*
X190013081Y-78451542D02*
X190013081Y-77880114D01*
X190013081Y-77880114D02*
X190084509Y-77737257D01*
X190084509Y-77737257D02*
X190227367Y-77665828D01*
X190227367Y-77665828D02*
X190513081Y-77665828D01*
X190513081Y-77665828D02*
X190655938Y-77737257D01*
X190655938Y-77737257D02*
X190727367Y-77880114D01*
X190727367Y-77880114D02*
X190727367Y-78022971D01*
X190727367Y-78022971D02*
X190013081Y-78165828D01*
X192013081Y-78665828D02*
X192013081Y-77165828D01*
X192013081Y-78594400D02*
X191870223Y-78665828D01*
X191870223Y-78665828D02*
X191584509Y-78665828D01*
X191584509Y-78665828D02*
X191441652Y-78594400D01*
X191441652Y-78594400D02*
X191370223Y-78522971D01*
X191370223Y-78522971D02*
X191298795Y-78380114D01*
X191298795Y-78380114D02*
X191298795Y-77951542D01*
X191298795Y-77951542D02*
X191370223Y-77808685D01*
X191370223Y-77808685D02*
X191441652Y-77737257D01*
X191441652Y-77737257D02*
X191584509Y-77665828D01*
X191584509Y-77665828D02*
X191870223Y-77665828D01*
X191870223Y-77665828D02*
X192013081Y-77737257D01*
X193370224Y-77665828D02*
X193370224Y-78665828D01*
X192727366Y-77665828D02*
X192727366Y-78451542D01*
X192727366Y-78451542D02*
X192798795Y-78594400D01*
X192798795Y-78594400D02*
X192941652Y-78665828D01*
X192941652Y-78665828D02*
X193155938Y-78665828D01*
X193155938Y-78665828D02*
X193298795Y-78594400D01*
X193298795Y-78594400D02*
X193370224Y-78522971D01*
X192798795Y-77165828D02*
X192870224Y-77237257D01*
X192870224Y-77237257D02*
X192798795Y-77308685D01*
X192798795Y-77308685D02*
X192727366Y-77237257D01*
X192727366Y-77237257D02*
X192798795Y-77165828D01*
X192798795Y-77165828D02*
X192798795Y-77308685D01*
X193370224Y-77165828D02*
X193441652Y-77237257D01*
X193441652Y-77237257D02*
X193370224Y-77308685D01*
X193370224Y-77308685D02*
X193298795Y-77237257D01*
X193298795Y-77237257D02*
X193370224Y-77165828D01*
X193370224Y-77165828D02*
X193370224Y-77308685D01*
X194084509Y-78665828D02*
X194084509Y-77165828D01*
X194227367Y-78094400D02*
X194655938Y-78665828D01*
X194655938Y-77665828D02*
X194084509Y-78237257D01*
X196370224Y-77308685D02*
X196441652Y-77237257D01*
X196441652Y-77237257D02*
X196584510Y-77165828D01*
X196584510Y-77165828D02*
X196941652Y-77165828D01*
X196941652Y-77165828D02*
X197084510Y-77237257D01*
X197084510Y-77237257D02*
X197155938Y-77308685D01*
X197155938Y-77308685D02*
X197227367Y-77451542D01*
X197227367Y-77451542D02*
X197227367Y-77594400D01*
X197227367Y-77594400D02*
X197155938Y-77808685D01*
X197155938Y-77808685D02*
X196298795Y-78665828D01*
X196298795Y-78665828D02*
X197227367Y-78665828D01*
X197798795Y-77308685D02*
X197870223Y-77237257D01*
X197870223Y-77237257D02*
X198013081Y-77165828D01*
X198013081Y-77165828D02*
X198370223Y-77165828D01*
X198370223Y-77165828D02*
X198513081Y-77237257D01*
X198513081Y-77237257D02*
X198584509Y-77308685D01*
X198584509Y-77308685D02*
X198655938Y-77451542D01*
X198655938Y-77451542D02*
X198655938Y-77594400D01*
X198655938Y-77594400D02*
X198584509Y-77808685D01*
X198584509Y-77808685D02*
X197727366Y-78665828D01*
X197727366Y-78665828D02*
X198655938Y-78665828D01*
X200084509Y-78665828D02*
X199227366Y-78665828D01*
X199655937Y-78665828D02*
X199655937Y-77165828D01*
X199655937Y-77165828D02*
X199513080Y-77380114D01*
X199513080Y-77380114D02*
X199370223Y-77522971D01*
X199370223Y-77522971D02*
X199227366Y-77594400D01*
X201013080Y-77165828D02*
X201155937Y-77165828D01*
X201155937Y-77165828D02*
X201298794Y-77237257D01*
X201298794Y-77237257D02*
X201370223Y-77308685D01*
X201370223Y-77308685D02*
X201441651Y-77451542D01*
X201441651Y-77451542D02*
X201513080Y-77737257D01*
X201513080Y-77737257D02*
X201513080Y-78094400D01*
X201513080Y-78094400D02*
X201441651Y-78380114D01*
X201441651Y-78380114D02*
X201370223Y-78522971D01*
X201370223Y-78522971D02*
X201298794Y-78594400D01*
X201298794Y-78594400D02*
X201155937Y-78665828D01*
X201155937Y-78665828D02*
X201013080Y-78665828D01*
X201013080Y-78665828D02*
X200870223Y-78594400D01*
X200870223Y-78594400D02*
X200798794Y-78522971D01*
X200798794Y-78522971D02*
X200727365Y-78380114D01*
X200727365Y-78380114D02*
X200655937Y-78094400D01*
X200655937Y-78094400D02*
X200655937Y-77737257D01*
X200655937Y-77737257D02*
X200727365Y-77451542D01*
X200727365Y-77451542D02*
X200798794Y-77308685D01*
X200798794Y-77308685D02*
X200870223Y-77237257D01*
X200870223Y-77237257D02*
X201013080Y-77165828D01*
X202441651Y-77165828D02*
X202584508Y-77165828D01*
X202584508Y-77165828D02*
X202727365Y-77237257D01*
X202727365Y-77237257D02*
X202798794Y-77308685D01*
X202798794Y-77308685D02*
X202870222Y-77451542D01*
X202870222Y-77451542D02*
X202941651Y-77737257D01*
X202941651Y-77737257D02*
X202941651Y-78094400D01*
X202941651Y-78094400D02*
X202870222Y-78380114D01*
X202870222Y-78380114D02*
X202798794Y-78522971D01*
X202798794Y-78522971D02*
X202727365Y-78594400D01*
X202727365Y-78594400D02*
X202584508Y-78665828D01*
X202584508Y-78665828D02*
X202441651Y-78665828D01*
X202441651Y-78665828D02*
X202298794Y-78594400D01*
X202298794Y-78594400D02*
X202227365Y-78522971D01*
X202227365Y-78522971D02*
X202155936Y-78380114D01*
X202155936Y-78380114D02*
X202084508Y-78094400D01*
X202084508Y-78094400D02*
X202084508Y-77737257D01*
X202084508Y-77737257D02*
X202155936Y-77451542D01*
X202155936Y-77451542D02*
X202227365Y-77308685D01*
X202227365Y-77308685D02*
X202298794Y-77237257D01*
X202298794Y-77237257D02*
X202441651Y-77165828D01*
X204298793Y-77165828D02*
X203584507Y-77165828D01*
X203584507Y-77165828D02*
X203513079Y-77880114D01*
X203513079Y-77880114D02*
X203584507Y-77808685D01*
X203584507Y-77808685D02*
X203727365Y-77737257D01*
X203727365Y-77737257D02*
X204084507Y-77737257D01*
X204084507Y-77737257D02*
X204227365Y-77808685D01*
X204227365Y-77808685D02*
X204298793Y-77880114D01*
X204298793Y-77880114D02*
X204370222Y-78022971D01*
X204370222Y-78022971D02*
X204370222Y-78380114D01*
X204370222Y-78380114D02*
X204298793Y-78522971D01*
X204298793Y-78522971D02*
X204227365Y-78594400D01*
X204227365Y-78594400D02*
X204084507Y-78665828D01*
X204084507Y-78665828D02*
X203727365Y-78665828D01*
X203727365Y-78665828D02*
X203584507Y-78594400D01*
X203584507Y-78594400D02*
X203513079Y-78522971D01*
X205298793Y-77165828D02*
X205441650Y-77165828D01*
X205441650Y-77165828D02*
X205584507Y-77237257D01*
X205584507Y-77237257D02*
X205655936Y-77308685D01*
X205655936Y-77308685D02*
X205727364Y-77451542D01*
X205727364Y-77451542D02*
X205798793Y-77737257D01*
X205798793Y-77737257D02*
X205798793Y-78094400D01*
X205798793Y-78094400D02*
X205727364Y-78380114D01*
X205727364Y-78380114D02*
X205655936Y-78522971D01*
X205655936Y-78522971D02*
X205584507Y-78594400D01*
X205584507Y-78594400D02*
X205441650Y-78665828D01*
X205441650Y-78665828D02*
X205298793Y-78665828D01*
X205298793Y-78665828D02*
X205155936Y-78594400D01*
X205155936Y-78594400D02*
X205084507Y-78522971D01*
X205084507Y-78522971D02*
X205013078Y-78380114D01*
X205013078Y-78380114D02*
X204941650Y-78094400D01*
X204941650Y-78094400D02*
X204941650Y-77737257D01*
X204941650Y-77737257D02*
X205013078Y-77451542D01*
X205013078Y-77451542D02*
X205084507Y-77308685D01*
X205084507Y-77308685D02*
X205155936Y-77237257D01*
X205155936Y-77237257D02*
X205298793Y-77165828D01*
X207084507Y-77165828D02*
X206798792Y-77165828D01*
X206798792Y-77165828D02*
X206655935Y-77237257D01*
X206655935Y-77237257D02*
X206584507Y-77308685D01*
X206584507Y-77308685D02*
X206441649Y-77522971D01*
X206441649Y-77522971D02*
X206370221Y-77808685D01*
X206370221Y-77808685D02*
X206370221Y-78380114D01*
X206370221Y-78380114D02*
X206441649Y-78522971D01*
X206441649Y-78522971D02*
X206513078Y-78594400D01*
X206513078Y-78594400D02*
X206655935Y-78665828D01*
X206655935Y-78665828D02*
X206941649Y-78665828D01*
X206941649Y-78665828D02*
X207084507Y-78594400D01*
X207084507Y-78594400D02*
X207155935Y-78522971D01*
X207155935Y-78522971D02*
X207227364Y-78380114D01*
X207227364Y-78380114D02*
X207227364Y-78022971D01*
X207227364Y-78022971D02*
X207155935Y-77880114D01*
X207155935Y-77880114D02*
X207084507Y-77808685D01*
X207084507Y-77808685D02*
X206941649Y-77737257D01*
X206941649Y-77737257D02*
X206655935Y-77737257D01*
X206655935Y-77737257D02*
X206513078Y-77808685D01*
X206513078Y-77808685D02*
X206441649Y-77880114D01*
X206441649Y-77880114D02*
X206370221Y-78022971D01*
X208155935Y-77165828D02*
X208298792Y-77165828D01*
X208298792Y-77165828D02*
X208441649Y-77237257D01*
X208441649Y-77237257D02*
X208513078Y-77308685D01*
X208513078Y-77308685D02*
X208584506Y-77451542D01*
X208584506Y-77451542D02*
X208655935Y-77737257D01*
X208655935Y-77737257D02*
X208655935Y-78094400D01*
X208655935Y-78094400D02*
X208584506Y-78380114D01*
X208584506Y-78380114D02*
X208513078Y-78522971D01*
X208513078Y-78522971D02*
X208441649Y-78594400D01*
X208441649Y-78594400D02*
X208298792Y-78665828D01*
X208298792Y-78665828D02*
X208155935Y-78665828D01*
X208155935Y-78665828D02*
X208013078Y-78594400D01*
X208013078Y-78594400D02*
X207941649Y-78522971D01*
X207941649Y-78522971D02*
X207870220Y-78380114D01*
X207870220Y-78380114D02*
X207798792Y-78094400D01*
X207798792Y-78094400D02*
X207798792Y-77737257D01*
X207798792Y-77737257D02*
X207870220Y-77451542D01*
X207870220Y-77451542D02*
X207941649Y-77308685D01*
X207941649Y-77308685D02*
X208013078Y-77237257D01*
X208013078Y-77237257D02*
X208155935Y-77165828D01*
X177013082Y-81009400D02*
X177227368Y-81080828D01*
X177227368Y-81080828D02*
X177584510Y-81080828D01*
X177584510Y-81080828D02*
X177727368Y-81009400D01*
X177727368Y-81009400D02*
X177798796Y-80937971D01*
X177798796Y-80937971D02*
X177870225Y-80795114D01*
X177870225Y-80795114D02*
X177870225Y-80652257D01*
X177870225Y-80652257D02*
X177798796Y-80509400D01*
X177798796Y-80509400D02*
X177727368Y-80437971D01*
X177727368Y-80437971D02*
X177584510Y-80366542D01*
X177584510Y-80366542D02*
X177298796Y-80295114D01*
X177298796Y-80295114D02*
X177155939Y-80223685D01*
X177155939Y-80223685D02*
X177084510Y-80152257D01*
X177084510Y-80152257D02*
X177013082Y-80009400D01*
X177013082Y-80009400D02*
X177013082Y-79866542D01*
X177013082Y-79866542D02*
X177084510Y-79723685D01*
X177084510Y-79723685D02*
X177155939Y-79652257D01*
X177155939Y-79652257D02*
X177298796Y-79580828D01*
X177298796Y-79580828D02*
X177655939Y-79580828D01*
X177655939Y-79580828D02*
X177870225Y-79652257D01*
X179084510Y-81009400D02*
X178941653Y-81080828D01*
X178941653Y-81080828D02*
X178655939Y-81080828D01*
X178655939Y-81080828D02*
X178513081Y-81009400D01*
X178513081Y-81009400D02*
X178441653Y-80866542D01*
X178441653Y-80866542D02*
X178441653Y-80295114D01*
X178441653Y-80295114D02*
X178513081Y-80152257D01*
X178513081Y-80152257D02*
X178655939Y-80080828D01*
X178655939Y-80080828D02*
X178941653Y-80080828D01*
X178941653Y-80080828D02*
X179084510Y-80152257D01*
X179084510Y-80152257D02*
X179155939Y-80295114D01*
X179155939Y-80295114D02*
X179155939Y-80437971D01*
X179155939Y-80437971D02*
X178441653Y-80580828D01*
X179798795Y-80080828D02*
X179798795Y-81080828D01*
X179798795Y-80223685D02*
X179870224Y-80152257D01*
X179870224Y-80152257D02*
X180013081Y-80080828D01*
X180013081Y-80080828D02*
X180227367Y-80080828D01*
X180227367Y-80080828D02*
X180370224Y-80152257D01*
X180370224Y-80152257D02*
X180441653Y-80295114D01*
X180441653Y-80295114D02*
X180441653Y-81080828D01*
X181798796Y-81080828D02*
X181798796Y-80295114D01*
X181798796Y-80295114D02*
X181727367Y-80152257D01*
X181727367Y-80152257D02*
X181584510Y-80080828D01*
X181584510Y-80080828D02*
X181298796Y-80080828D01*
X181298796Y-80080828D02*
X181155938Y-80152257D01*
X181798796Y-81009400D02*
X181655938Y-81080828D01*
X181655938Y-81080828D02*
X181298796Y-81080828D01*
X181298796Y-81080828D02*
X181155938Y-81009400D01*
X181155938Y-81009400D02*
X181084510Y-80866542D01*
X181084510Y-80866542D02*
X181084510Y-80723685D01*
X181084510Y-80723685D02*
X181155938Y-80580828D01*
X181155938Y-80580828D02*
X181298796Y-80509400D01*
X181298796Y-80509400D02*
X181655938Y-80509400D01*
X181655938Y-80509400D02*
X181798796Y-80437971D01*
X184513081Y-80937971D02*
X184441653Y-81009400D01*
X184441653Y-81009400D02*
X184227367Y-81080828D01*
X184227367Y-81080828D02*
X184084510Y-81080828D01*
X184084510Y-81080828D02*
X183870224Y-81009400D01*
X183870224Y-81009400D02*
X183727367Y-80866542D01*
X183727367Y-80866542D02*
X183655938Y-80723685D01*
X183655938Y-80723685D02*
X183584510Y-80437971D01*
X183584510Y-80437971D02*
X183584510Y-80223685D01*
X183584510Y-80223685D02*
X183655938Y-79937971D01*
X183655938Y-79937971D02*
X183727367Y-79795114D01*
X183727367Y-79795114D02*
X183870224Y-79652257D01*
X183870224Y-79652257D02*
X184084510Y-79580828D01*
X184084510Y-79580828D02*
X184227367Y-79580828D01*
X184227367Y-79580828D02*
X184441653Y-79652257D01*
X184441653Y-79652257D02*
X184513081Y-79723685D01*
X184155938Y-81152257D02*
X184298796Y-81223685D01*
X184298796Y-81223685D02*
X184370224Y-81366542D01*
X184370224Y-81366542D02*
X184298796Y-81509400D01*
X184298796Y-81509400D02*
X184155938Y-81580828D01*
X184155938Y-81580828D02*
X183941653Y-81580828D01*
X185798796Y-81080828D02*
X185798796Y-80295114D01*
X185798796Y-80295114D02*
X185727367Y-80152257D01*
X185727367Y-80152257D02*
X185584510Y-80080828D01*
X185584510Y-80080828D02*
X185298796Y-80080828D01*
X185298796Y-80080828D02*
X185155938Y-80152257D01*
X185798796Y-81009400D02*
X185655938Y-81080828D01*
X185655938Y-81080828D02*
X185298796Y-81080828D01*
X185298796Y-81080828D02*
X185155938Y-81009400D01*
X185155938Y-81009400D02*
X185084510Y-80866542D01*
X185084510Y-80866542D02*
X185084510Y-80723685D01*
X185084510Y-80723685D02*
X185155938Y-80580828D01*
X185155938Y-80580828D02*
X185298796Y-80509400D01*
X185298796Y-80509400D02*
X185655938Y-80509400D01*
X185655938Y-80509400D02*
X185798796Y-80437971D01*
X186513081Y-81080828D02*
X186513081Y-79580828D01*
X186655939Y-80509400D02*
X187084510Y-81080828D01*
X187084510Y-80080828D02*
X186513081Y-80652257D01*
X187727367Y-81080828D02*
X187727367Y-80080828D01*
X188441653Y-81080828D02*
X188441653Y-80080828D01*
X188441653Y-80366542D02*
X188513082Y-80223685D01*
X188513082Y-80223685D02*
X188584511Y-80152257D01*
X188584511Y-80152257D02*
X188727368Y-80080828D01*
X188727368Y-80080828D02*
X188870225Y-80080828D01*
X189584510Y-81080828D02*
X189441653Y-81009400D01*
X189441653Y-81009400D02*
X189370224Y-80937971D01*
X189370224Y-80937971D02*
X189298796Y-80795114D01*
X189298796Y-80795114D02*
X189298796Y-80366542D01*
X189298796Y-80366542D02*
X189370224Y-80223685D01*
X189370224Y-80223685D02*
X189441653Y-80152257D01*
X189441653Y-80152257D02*
X189584510Y-80080828D01*
X189584510Y-80080828D02*
X189798796Y-80080828D01*
X189798796Y-80080828D02*
X189941653Y-80152257D01*
X189941653Y-80152257D02*
X190013082Y-80223685D01*
X190013082Y-80223685D02*
X190084510Y-80366542D01*
X190084510Y-80366542D02*
X190084510Y-80795114D01*
X190084510Y-80795114D02*
X190013082Y-80937971D01*
X190013082Y-80937971D02*
X189941653Y-81009400D01*
X189941653Y-81009400D02*
X189798796Y-81080828D01*
X189798796Y-81080828D02*
X189584510Y-81080828D01*
X191370225Y-80080828D02*
X191370225Y-81295114D01*
X191370225Y-81295114D02*
X191298796Y-81437971D01*
X191298796Y-81437971D02*
X191227367Y-81509400D01*
X191227367Y-81509400D02*
X191084510Y-81580828D01*
X191084510Y-81580828D02*
X190870225Y-81580828D01*
X190870225Y-81580828D02*
X190727367Y-81509400D01*
X191370225Y-81009400D02*
X191227367Y-81080828D01*
X191227367Y-81080828D02*
X190941653Y-81080828D01*
X190941653Y-81080828D02*
X190798796Y-81009400D01*
X190798796Y-81009400D02*
X190727367Y-80937971D01*
X190727367Y-80937971D02*
X190655939Y-80795114D01*
X190655939Y-80795114D02*
X190655939Y-80366542D01*
X190655939Y-80366542D02*
X190727367Y-80223685D01*
X190727367Y-80223685D02*
X190798796Y-80152257D01*
X190798796Y-80152257D02*
X190941653Y-80080828D01*
X190941653Y-80080828D02*
X191227367Y-80080828D01*
X191227367Y-80080828D02*
X191370225Y-80152257D01*
X190727367Y-79509400D02*
X190798796Y-79652257D01*
X190798796Y-79652257D02*
X190941653Y-79723685D01*
X190941653Y-79723685D02*
X191084510Y-79723685D01*
X191084510Y-79723685D02*
X191227367Y-79652257D01*
X191227367Y-79652257D02*
X191298796Y-79509400D01*
X192298796Y-81080828D02*
X192155939Y-81009400D01*
X192155939Y-81009400D02*
X192084510Y-80866542D01*
X192084510Y-80866542D02*
X192084510Y-79580828D01*
X193513082Y-80080828D02*
X193513082Y-81080828D01*
X192870224Y-80080828D02*
X192870224Y-80866542D01*
X192870224Y-80866542D02*
X192941653Y-81009400D01*
X192941653Y-81009400D02*
X193084510Y-81080828D01*
X193084510Y-81080828D02*
X193298796Y-81080828D01*
X193298796Y-81080828D02*
X193441653Y-81009400D01*
X193441653Y-81009400D02*
X193513082Y-80937971D01*
X195298796Y-79723685D02*
X195370224Y-79652257D01*
X195370224Y-79652257D02*
X195513082Y-79580828D01*
X195513082Y-79580828D02*
X195870224Y-79580828D01*
X195870224Y-79580828D02*
X196013082Y-79652257D01*
X196013082Y-79652257D02*
X196084510Y-79723685D01*
X196084510Y-79723685D02*
X196155939Y-79866542D01*
X196155939Y-79866542D02*
X196155939Y-80009400D01*
X196155939Y-80009400D02*
X196084510Y-80223685D01*
X196084510Y-80223685D02*
X195227367Y-81080828D01*
X195227367Y-81080828D02*
X196155939Y-81080828D01*
X196727367Y-79723685D02*
X196798795Y-79652257D01*
X196798795Y-79652257D02*
X196941653Y-79580828D01*
X196941653Y-79580828D02*
X197298795Y-79580828D01*
X197298795Y-79580828D02*
X197441653Y-79652257D01*
X197441653Y-79652257D02*
X197513081Y-79723685D01*
X197513081Y-79723685D02*
X197584510Y-79866542D01*
X197584510Y-79866542D02*
X197584510Y-80009400D01*
X197584510Y-80009400D02*
X197513081Y-80223685D01*
X197513081Y-80223685D02*
X196655938Y-81080828D01*
X196655938Y-81080828D02*
X197584510Y-81080828D01*
X199013081Y-81080828D02*
X198155938Y-81080828D01*
X198584509Y-81080828D02*
X198584509Y-79580828D01*
X198584509Y-79580828D02*
X198441652Y-79795114D01*
X198441652Y-79795114D02*
X198298795Y-79937971D01*
X198298795Y-79937971D02*
X198155938Y-80009400D01*
X199941652Y-79580828D02*
X200084509Y-79580828D01*
X200084509Y-79580828D02*
X200227366Y-79652257D01*
X200227366Y-79652257D02*
X200298795Y-79723685D01*
X200298795Y-79723685D02*
X200370223Y-79866542D01*
X200370223Y-79866542D02*
X200441652Y-80152257D01*
X200441652Y-80152257D02*
X200441652Y-80509400D01*
X200441652Y-80509400D02*
X200370223Y-80795114D01*
X200370223Y-80795114D02*
X200298795Y-80937971D01*
X200298795Y-80937971D02*
X200227366Y-81009400D01*
X200227366Y-81009400D02*
X200084509Y-81080828D01*
X200084509Y-81080828D02*
X199941652Y-81080828D01*
X199941652Y-81080828D02*
X199798795Y-81009400D01*
X199798795Y-81009400D02*
X199727366Y-80937971D01*
X199727366Y-80937971D02*
X199655937Y-80795114D01*
X199655937Y-80795114D02*
X199584509Y-80509400D01*
X199584509Y-80509400D02*
X199584509Y-80152257D01*
X199584509Y-80152257D02*
X199655937Y-79866542D01*
X199655937Y-79866542D02*
X199727366Y-79723685D01*
X199727366Y-79723685D02*
X199798795Y-79652257D01*
X199798795Y-79652257D02*
X199941652Y-79580828D01*
X201370223Y-79580828D02*
X201513080Y-79580828D01*
X201513080Y-79580828D02*
X201655937Y-79652257D01*
X201655937Y-79652257D02*
X201727366Y-79723685D01*
X201727366Y-79723685D02*
X201798794Y-79866542D01*
X201798794Y-79866542D02*
X201870223Y-80152257D01*
X201870223Y-80152257D02*
X201870223Y-80509400D01*
X201870223Y-80509400D02*
X201798794Y-80795114D01*
X201798794Y-80795114D02*
X201727366Y-80937971D01*
X201727366Y-80937971D02*
X201655937Y-81009400D01*
X201655937Y-81009400D02*
X201513080Y-81080828D01*
X201513080Y-81080828D02*
X201370223Y-81080828D01*
X201370223Y-81080828D02*
X201227366Y-81009400D01*
X201227366Y-81009400D02*
X201155937Y-80937971D01*
X201155937Y-80937971D02*
X201084508Y-80795114D01*
X201084508Y-80795114D02*
X201013080Y-80509400D01*
X201013080Y-80509400D02*
X201013080Y-80152257D01*
X201013080Y-80152257D02*
X201084508Y-79866542D01*
X201084508Y-79866542D02*
X201155937Y-79723685D01*
X201155937Y-79723685D02*
X201227366Y-79652257D01*
X201227366Y-79652257D02*
X201370223Y-79580828D01*
X203227365Y-79580828D02*
X202513079Y-79580828D01*
X202513079Y-79580828D02*
X202441651Y-80295114D01*
X202441651Y-80295114D02*
X202513079Y-80223685D01*
X202513079Y-80223685D02*
X202655937Y-80152257D01*
X202655937Y-80152257D02*
X203013079Y-80152257D01*
X203013079Y-80152257D02*
X203155937Y-80223685D01*
X203155937Y-80223685D02*
X203227365Y-80295114D01*
X203227365Y-80295114D02*
X203298794Y-80437971D01*
X203298794Y-80437971D02*
X203298794Y-80795114D01*
X203298794Y-80795114D02*
X203227365Y-80937971D01*
X203227365Y-80937971D02*
X203155937Y-81009400D01*
X203155937Y-81009400D02*
X203013079Y-81080828D01*
X203013079Y-81080828D02*
X202655937Y-81080828D01*
X202655937Y-81080828D02*
X202513079Y-81009400D01*
X202513079Y-81009400D02*
X202441651Y-80937971D01*
X204227365Y-79580828D02*
X204370222Y-79580828D01*
X204370222Y-79580828D02*
X204513079Y-79652257D01*
X204513079Y-79652257D02*
X204584508Y-79723685D01*
X204584508Y-79723685D02*
X204655936Y-79866542D01*
X204655936Y-79866542D02*
X204727365Y-80152257D01*
X204727365Y-80152257D02*
X204727365Y-80509400D01*
X204727365Y-80509400D02*
X204655936Y-80795114D01*
X204655936Y-80795114D02*
X204584508Y-80937971D01*
X204584508Y-80937971D02*
X204513079Y-81009400D01*
X204513079Y-81009400D02*
X204370222Y-81080828D01*
X204370222Y-81080828D02*
X204227365Y-81080828D01*
X204227365Y-81080828D02*
X204084508Y-81009400D01*
X204084508Y-81009400D02*
X204013079Y-80937971D01*
X204013079Y-80937971D02*
X203941650Y-80795114D01*
X203941650Y-80795114D02*
X203870222Y-80509400D01*
X203870222Y-80509400D02*
X203870222Y-80152257D01*
X203870222Y-80152257D02*
X203941650Y-79866542D01*
X203941650Y-79866542D02*
X204013079Y-79723685D01*
X204013079Y-79723685D02*
X204084508Y-79652257D01*
X204084508Y-79652257D02*
X204227365Y-79580828D01*
X206084507Y-79580828D02*
X205370221Y-79580828D01*
X205370221Y-79580828D02*
X205298793Y-80295114D01*
X205298793Y-80295114D02*
X205370221Y-80223685D01*
X205370221Y-80223685D02*
X205513079Y-80152257D01*
X205513079Y-80152257D02*
X205870221Y-80152257D01*
X205870221Y-80152257D02*
X206013079Y-80223685D01*
X206013079Y-80223685D02*
X206084507Y-80295114D01*
X206084507Y-80295114D02*
X206155936Y-80437971D01*
X206155936Y-80437971D02*
X206155936Y-80795114D01*
X206155936Y-80795114D02*
X206084507Y-80937971D01*
X206084507Y-80937971D02*
X206013079Y-81009400D01*
X206013079Y-81009400D02*
X205870221Y-81080828D01*
X205870221Y-81080828D02*
X205513079Y-81080828D01*
X205513079Y-81080828D02*
X205370221Y-81009400D01*
X205370221Y-81009400D02*
X205298793Y-80937971D01*
X206655935Y-79580828D02*
X207655935Y-79580828D01*
X207655935Y-79580828D02*
X207013078Y-81080828D01*
D12*
%TO.P,R1,1*%
%TO.N,Net-(D1-K)*%
X165100000Y-96520000D03*
D13*
%TO.P,R1,2*%
%TO.N,Net-(Q1-E)*%
X165100000Y-106680000D03*
%TD*%
D14*
%TO.P,Q1,1,C*%
%TO.N,GND*%
X128320800Y-115011200D03*
D15*
%TO.P,Q1,2,B*%
%TO.N,Net-(Q1-B)*%
X128270000Y-113030000D03*
%TO.P,Q1,3,E*%
%TO.N,Net-(Q1-E)*%
X128270000Y-110998000D03*
%TD*%
D14*
%TO.P,Q2,1,C*%
%TO.N,Net-(Q2-C)*%
X165100000Y-115570000D03*
D15*
%TO.P,Q2,2,B*%
%TO.N,Net-(Q2-B)*%
X165100000Y-113741200D03*
%TO.P,Q2,3,E*%
%TO.N,GND*%
X165100000Y-111760000D03*
%TD*%
D16*
%TO.P,RV1,1,1*%
%TO.N,unconnected-(RV1-Pad1)*%
X144780000Y-83820000D03*
%TO.P,RV1,2,2*%
%TO.N,+9V*%
X142240000Y-78740000D03*
%TO.P,RV1,3,3*%
%TO.N,Net-(R3-Pad1)*%
X139700000Y-83820000D03*
%TD*%
D17*
%TO.P,C2,1*%
%TO.N,Net-(Q2-C)*%
X144780000Y-106680000D03*
D12*
%TO.P,C2,2*%
%TO.N,Net-(Q1-B)*%
X142280000Y-106680000D03*
%TD*%
%TO.P,R4,1*%
%TO.N,Net-(D2-K)*%
X134620000Y-96520000D03*
D13*
%TO.P,R4,2*%
%TO.N,Net-(Q2-C)*%
X134620000Y-106680000D03*
%TD*%
D12*
%TO.P,R2,1*%
%TO.N,Net-(R2-Pad1)*%
X154940000Y-88900000D03*
D13*
%TO.P,R2,2*%
%TO.N,Net-(Q1-B)*%
X154940000Y-99060000D03*
%TD*%
D16*
%TO.P,RV2,1,1*%
%TO.N,unconnected-(RV2-Pad1)*%
X160020000Y-83820000D03*
%TO.P,RV2,2,2*%
%TO.N,+9V*%
X157480000Y-78740000D03*
%TO.P,RV2,3,3*%
%TO.N,Net-(R2-Pad1)*%
X154940000Y-83820000D03*
%TD*%
D18*
%TO.P,D1,1,K*%
%TO.N,Net-(D1-K)*%
X165890000Y-91440000D03*
D19*
%TO.P,D1,2,A*%
%TO.N,+9V*%
X165890000Y-88900000D03*
%TD*%
D20*
%TO.P,J1,1,Pin_1*%
%TO.N,+9V*%
X125730000Y-99060000D03*
D21*
%TO.P,J1,2,Pin_2*%
%TO.N,GND*%
X125730000Y-104140000D03*
%TD*%
D12*
%TO.P,R3,1*%
%TO.N,Net-(R3-Pad1)*%
X144780000Y-88900000D03*
D13*
%TO.P,R3,2*%
%TO.N,Net-(Q2-B)*%
X144780000Y-99060000D03*
%TD*%
D18*
%TO.P,D2,1,K*%
%TO.N,Net-(D2-K)*%
X133830000Y-91440000D03*
D19*
%TO.P,D2,2,A*%
%TO.N,+9V*%
X133830000Y-88900000D03*
%TD*%
D17*
%TO.P,C1,1*%
%TO.N,Net-(Q2-B)*%
X157480000Y-106680000D03*
D12*
%TO.P,C1,2*%
%TO.N,Net-(Q1-E)*%
X154980000Y-106680000D03*
%TD*%
M02*
