%TF.GenerationSoftware,KiCad,Pcbnew,7.0.7*%
%TF.CreationDate,2024-05-03T13:01:40+03:00*%
%TF.ProjectId,Flip-Flop_lab_project,466c6970-2d46-46c6-9f70-5f6c61625f70,rev?*%
%TF.SameCoordinates,Original*%
%TF.FileFunction,Drillmap*%
%TF.FilePolarity,Positive*%
%FSLAX45Y45*%
G04 Gerber Fmt 4.5, Leading zero omitted, Abs format (unit mm)*
G04 Created by KiCad (PCBNEW 7.0.7) date 2024-05-03 13:01:40*
%MOMM*%
%LPD*%
G01*
G04 APERTURE LIST*
%ADD10C,0.100000*%
%ADD11C,0.200000*%
%ADD12C,0.075000*%
%ADD13C,0.080000*%
%ADD14C,0.090000*%
%ADD15C,0.152000*%
G04 APERTURE END LIST*
D10*
X17145000Y-7493000D02*
X12065000Y-7493000D01*
X12065000Y-12192000D02*
X12065000Y-7493000D01*
X17145000Y-12192000D02*
X12065000Y-12192000D01*
X17145000Y-7493000D02*
X17145000Y-12192000D01*
D11*
D12*
X12789500Y-11062300D02*
X12864500Y-11137300D01*
X12864500Y-11062300D02*
X12789500Y-11137300D01*
X12789500Y-11265500D02*
X12864500Y-11340500D01*
X12864500Y-11265500D02*
X12789500Y-11340500D01*
X12794580Y-11463620D02*
X12869580Y-11538620D01*
X12869580Y-11463620D02*
X12794580Y-11538620D01*
X16472500Y-11138500D02*
X16547500Y-11213500D01*
X16547500Y-11138500D02*
X16472500Y-11213500D01*
X16472500Y-11336620D02*
X16547500Y-11411620D01*
X16547500Y-11336620D02*
X16472500Y-11411620D01*
X16472500Y-11519500D02*
X16547500Y-11594500D01*
X16547500Y-11519500D02*
X16472500Y-11594500D01*
D13*
X13502000Y-9652000D02*
G75*
G03*
X13502000Y-9652000I-40000J0D01*
G01*
X13502000Y-10668000D02*
G75*
G03*
X13502000Y-10668000I-40000J0D01*
G01*
X14010000Y-8382000D02*
G75*
G03*
X14010000Y-8382000I-40000J0D01*
G01*
X14264000Y-7874000D02*
G75*
G03*
X14264000Y-7874000I-40000J0D01*
G01*
X14268000Y-10668000D02*
G75*
G03*
X14268000Y-10668000I-40000J0D01*
G01*
X14518000Y-8382000D02*
G75*
G03*
X14518000Y-8382000I-40000J0D01*
G01*
X14518000Y-8890000D02*
G75*
G03*
X14518000Y-8890000I-40000J0D01*
G01*
X14518000Y-9906000D02*
G75*
G03*
X14518000Y-9906000I-40000J0D01*
G01*
X14518000Y-10668000D02*
G75*
G03*
X14518000Y-10668000I-40000J0D01*
G01*
X15534000Y-8382000D02*
G75*
G03*
X15534000Y-8382000I-40000J0D01*
G01*
X15534000Y-8890000D02*
G75*
G03*
X15534000Y-8890000I-40000J0D01*
G01*
X15534000Y-9906000D02*
G75*
G03*
X15534000Y-9906000I-40000J0D01*
G01*
X15538000Y-10668000D02*
G75*
G03*
X15538000Y-10668000I-40000J0D01*
G01*
X15788000Y-7874000D02*
G75*
G03*
X15788000Y-7874000I-40000J0D01*
G01*
X15788000Y-10668000D02*
G75*
G03*
X15788000Y-10668000I-40000J0D01*
G01*
X16042000Y-8382000D02*
G75*
G03*
X16042000Y-8382000I-40000J0D01*
G01*
X16550000Y-9652000D02*
G75*
G03*
X16550000Y-9652000I-40000J0D01*
G01*
X16550000Y-10668000D02*
G75*
G03*
X16550000Y-10668000I-40000J0D01*
G01*
D14*
X13383000Y-8845000D02*
X13383000Y-8935000D01*
X13338000Y-8890000D02*
X13428000Y-8890000D01*
X13383000Y-9099000D02*
X13383000Y-9189000D01*
X13338000Y-9144000D02*
X13428000Y-9144000D01*
X16589000Y-8845000D02*
X16589000Y-8935000D01*
X16544000Y-8890000D02*
X16634000Y-8890000D01*
X16589000Y-9099000D02*
X16589000Y-9189000D01*
X16544000Y-9144000D02*
X16634000Y-9144000D01*
D15*
X12626741Y-9959741D02*
X12626741Y-9852259D01*
X12519259Y-9852259D01*
X12519259Y-9959741D01*
X12626741Y-9959741D01*
X12626741Y-10467741D02*
X12626741Y-10360259D01*
X12519259Y-10360259D01*
X12519259Y-10467741D01*
X12626741Y-10467741D01*
D11*
X12320777Y-12508484D02*
X12320777Y-12308484D01*
X12320777Y-12308484D02*
X12368396Y-12308484D01*
X12368396Y-12308484D02*
X12396967Y-12318008D01*
X12396967Y-12318008D02*
X12416015Y-12337055D01*
X12416015Y-12337055D02*
X12425539Y-12356103D01*
X12425539Y-12356103D02*
X12435062Y-12394198D01*
X12435062Y-12394198D02*
X12435062Y-12422769D01*
X12435062Y-12422769D02*
X12425539Y-12460865D01*
X12425539Y-12460865D02*
X12416015Y-12479912D01*
X12416015Y-12479912D02*
X12396967Y-12498960D01*
X12396967Y-12498960D02*
X12368396Y-12508484D01*
X12368396Y-12508484D02*
X12320777Y-12508484D01*
X12520777Y-12508484D02*
X12520777Y-12375150D01*
X12520777Y-12413246D02*
X12530301Y-12394198D01*
X12530301Y-12394198D02*
X12539824Y-12384674D01*
X12539824Y-12384674D02*
X12558872Y-12375150D01*
X12558872Y-12375150D02*
X12577920Y-12375150D01*
X12644586Y-12508484D02*
X12644586Y-12375150D01*
X12644586Y-12308484D02*
X12635062Y-12318008D01*
X12635062Y-12318008D02*
X12644586Y-12327531D01*
X12644586Y-12327531D02*
X12654110Y-12318008D01*
X12654110Y-12318008D02*
X12644586Y-12308484D01*
X12644586Y-12308484D02*
X12644586Y-12327531D01*
X12768396Y-12508484D02*
X12749348Y-12498960D01*
X12749348Y-12498960D02*
X12739824Y-12479912D01*
X12739824Y-12479912D02*
X12739824Y-12308484D01*
X12873158Y-12508484D02*
X12854110Y-12498960D01*
X12854110Y-12498960D02*
X12844586Y-12479912D01*
X12844586Y-12479912D02*
X12844586Y-12308484D01*
X13101729Y-12508484D02*
X13101729Y-12308484D01*
X13101729Y-12308484D02*
X13168396Y-12451341D01*
X13168396Y-12451341D02*
X13235062Y-12308484D01*
X13235062Y-12308484D02*
X13235062Y-12508484D01*
X13416015Y-12508484D02*
X13416015Y-12403722D01*
X13416015Y-12403722D02*
X13406491Y-12384674D01*
X13406491Y-12384674D02*
X13387443Y-12375150D01*
X13387443Y-12375150D02*
X13349348Y-12375150D01*
X13349348Y-12375150D02*
X13330301Y-12384674D01*
X13416015Y-12498960D02*
X13396967Y-12508484D01*
X13396967Y-12508484D02*
X13349348Y-12508484D01*
X13349348Y-12508484D02*
X13330301Y-12498960D01*
X13330301Y-12498960D02*
X13320777Y-12479912D01*
X13320777Y-12479912D02*
X13320777Y-12460865D01*
X13320777Y-12460865D02*
X13330301Y-12441817D01*
X13330301Y-12441817D02*
X13349348Y-12432293D01*
X13349348Y-12432293D02*
X13396967Y-12432293D01*
X13396967Y-12432293D02*
X13416015Y-12422769D01*
X13511253Y-12375150D02*
X13511253Y-12575150D01*
X13511253Y-12384674D02*
X13530301Y-12375150D01*
X13530301Y-12375150D02*
X13568396Y-12375150D01*
X13568396Y-12375150D02*
X13587443Y-12384674D01*
X13587443Y-12384674D02*
X13596967Y-12394198D01*
X13596967Y-12394198D02*
X13606491Y-12413246D01*
X13606491Y-12413246D02*
X13606491Y-12470388D01*
X13606491Y-12470388D02*
X13596967Y-12489436D01*
X13596967Y-12489436D02*
X13587443Y-12498960D01*
X13587443Y-12498960D02*
X13568396Y-12508484D01*
X13568396Y-12508484D02*
X13530301Y-12508484D01*
X13530301Y-12508484D02*
X13511253Y-12498960D01*
X13692205Y-12489436D02*
X13701729Y-12498960D01*
X13701729Y-12498960D02*
X13692205Y-12508484D01*
X13692205Y-12508484D02*
X13682682Y-12498960D01*
X13682682Y-12498960D02*
X13692205Y-12489436D01*
X13692205Y-12489436D02*
X13692205Y-12508484D01*
X13692205Y-12384674D02*
X13701729Y-12394198D01*
X13701729Y-12394198D02*
X13692205Y-12403722D01*
X13692205Y-12403722D02*
X13682682Y-12394198D01*
X13682682Y-12394198D02*
X13692205Y-12384674D01*
X13692205Y-12384674D02*
X13692205Y-12403722D01*
D12*
X11985000Y-12799500D02*
X12060000Y-12874500D01*
X12060000Y-12799500D02*
X11985000Y-12874500D01*
D11*
X12358872Y-12728484D02*
X12377920Y-12728484D01*
X12377920Y-12728484D02*
X12396967Y-12738008D01*
X12396967Y-12738008D02*
X12406491Y-12747531D01*
X12406491Y-12747531D02*
X12416015Y-12766579D01*
X12416015Y-12766579D02*
X12425539Y-12804674D01*
X12425539Y-12804674D02*
X12425539Y-12852293D01*
X12425539Y-12852293D02*
X12416015Y-12890388D01*
X12416015Y-12890388D02*
X12406491Y-12909436D01*
X12406491Y-12909436D02*
X12396967Y-12918960D01*
X12396967Y-12918960D02*
X12377920Y-12928484D01*
X12377920Y-12928484D02*
X12358872Y-12928484D01*
X12358872Y-12928484D02*
X12339824Y-12918960D01*
X12339824Y-12918960D02*
X12330301Y-12909436D01*
X12330301Y-12909436D02*
X12320777Y-12890388D01*
X12320777Y-12890388D02*
X12311253Y-12852293D01*
X12311253Y-12852293D02*
X12311253Y-12804674D01*
X12311253Y-12804674D02*
X12320777Y-12766579D01*
X12320777Y-12766579D02*
X12330301Y-12747531D01*
X12330301Y-12747531D02*
X12339824Y-12738008D01*
X12339824Y-12738008D02*
X12358872Y-12728484D01*
X12511253Y-12909436D02*
X12520777Y-12918960D01*
X12520777Y-12918960D02*
X12511253Y-12928484D01*
X12511253Y-12928484D02*
X12501729Y-12918960D01*
X12501729Y-12918960D02*
X12511253Y-12909436D01*
X12511253Y-12909436D02*
X12511253Y-12928484D01*
X12587443Y-12728484D02*
X12720777Y-12728484D01*
X12720777Y-12728484D02*
X12635062Y-12928484D01*
X12892205Y-12728484D02*
X12796967Y-12728484D01*
X12796967Y-12728484D02*
X12787443Y-12823722D01*
X12787443Y-12823722D02*
X12796967Y-12814198D01*
X12796967Y-12814198D02*
X12816015Y-12804674D01*
X12816015Y-12804674D02*
X12863634Y-12804674D01*
X12863634Y-12804674D02*
X12882682Y-12814198D01*
X12882682Y-12814198D02*
X12892205Y-12823722D01*
X12892205Y-12823722D02*
X12901729Y-12842769D01*
X12901729Y-12842769D02*
X12901729Y-12890388D01*
X12901729Y-12890388D02*
X12892205Y-12909436D01*
X12892205Y-12909436D02*
X12882682Y-12918960D01*
X12882682Y-12918960D02*
X12863634Y-12928484D01*
X12863634Y-12928484D02*
X12816015Y-12928484D01*
X12816015Y-12928484D02*
X12796967Y-12918960D01*
X12796967Y-12918960D02*
X12787443Y-12909436D01*
X13025539Y-12728484D02*
X13044586Y-12728484D01*
X13044586Y-12728484D02*
X13063634Y-12738008D01*
X13063634Y-12738008D02*
X13073158Y-12747531D01*
X13073158Y-12747531D02*
X13082682Y-12766579D01*
X13082682Y-12766579D02*
X13092205Y-12804674D01*
X13092205Y-12804674D02*
X13092205Y-12852293D01*
X13092205Y-12852293D02*
X13082682Y-12890388D01*
X13082682Y-12890388D02*
X13073158Y-12909436D01*
X13073158Y-12909436D02*
X13063634Y-12918960D01*
X13063634Y-12918960D02*
X13044586Y-12928484D01*
X13044586Y-12928484D02*
X13025539Y-12928484D01*
X13025539Y-12928484D02*
X13006491Y-12918960D01*
X13006491Y-12918960D02*
X12996967Y-12909436D01*
X12996967Y-12909436D02*
X12987443Y-12890388D01*
X12987443Y-12890388D02*
X12977920Y-12852293D01*
X12977920Y-12852293D02*
X12977920Y-12804674D01*
X12977920Y-12804674D02*
X12987443Y-12766579D01*
X12987443Y-12766579D02*
X12996967Y-12747531D01*
X12996967Y-12747531D02*
X13006491Y-12738008D01*
X13006491Y-12738008D02*
X13025539Y-12728484D01*
X13177920Y-12928484D02*
X13177920Y-12795150D01*
X13177920Y-12814198D02*
X13187443Y-12804674D01*
X13187443Y-12804674D02*
X13206491Y-12795150D01*
X13206491Y-12795150D02*
X13235063Y-12795150D01*
X13235063Y-12795150D02*
X13254110Y-12804674D01*
X13254110Y-12804674D02*
X13263634Y-12823722D01*
X13263634Y-12823722D02*
X13263634Y-12928484D01*
X13263634Y-12823722D02*
X13273158Y-12804674D01*
X13273158Y-12804674D02*
X13292205Y-12795150D01*
X13292205Y-12795150D02*
X13320777Y-12795150D01*
X13320777Y-12795150D02*
X13339824Y-12804674D01*
X13339824Y-12804674D02*
X13349348Y-12823722D01*
X13349348Y-12823722D02*
X13349348Y-12928484D01*
X13444586Y-12928484D02*
X13444586Y-12795150D01*
X13444586Y-12814198D02*
X13454110Y-12804674D01*
X13454110Y-12804674D02*
X13473158Y-12795150D01*
X13473158Y-12795150D02*
X13501729Y-12795150D01*
X13501729Y-12795150D02*
X13520777Y-12804674D01*
X13520777Y-12804674D02*
X13530301Y-12823722D01*
X13530301Y-12823722D02*
X13530301Y-12928484D01*
X13530301Y-12823722D02*
X13539824Y-12804674D01*
X13539824Y-12804674D02*
X13558872Y-12795150D01*
X13558872Y-12795150D02*
X13587443Y-12795150D01*
X13587443Y-12795150D02*
X13606491Y-12804674D01*
X13606491Y-12804674D02*
X13616015Y-12823722D01*
X13616015Y-12823722D02*
X13616015Y-12928484D01*
X14006491Y-12718960D02*
X13835063Y-12976103D01*
X14263634Y-12728484D02*
X14282682Y-12728484D01*
X14282682Y-12728484D02*
X14301729Y-12738008D01*
X14301729Y-12738008D02*
X14311253Y-12747531D01*
X14311253Y-12747531D02*
X14320777Y-12766579D01*
X14320777Y-12766579D02*
X14330301Y-12804674D01*
X14330301Y-12804674D02*
X14330301Y-12852293D01*
X14330301Y-12852293D02*
X14320777Y-12890388D01*
X14320777Y-12890388D02*
X14311253Y-12909436D01*
X14311253Y-12909436D02*
X14301729Y-12918960D01*
X14301729Y-12918960D02*
X14282682Y-12928484D01*
X14282682Y-12928484D02*
X14263634Y-12928484D01*
X14263634Y-12928484D02*
X14244586Y-12918960D01*
X14244586Y-12918960D02*
X14235063Y-12909436D01*
X14235063Y-12909436D02*
X14225539Y-12890388D01*
X14225539Y-12890388D02*
X14216015Y-12852293D01*
X14216015Y-12852293D02*
X14216015Y-12804674D01*
X14216015Y-12804674D02*
X14225539Y-12766579D01*
X14225539Y-12766579D02*
X14235063Y-12747531D01*
X14235063Y-12747531D02*
X14244586Y-12738008D01*
X14244586Y-12738008D02*
X14263634Y-12728484D01*
X14416015Y-12909436D02*
X14425539Y-12918960D01*
X14425539Y-12918960D02*
X14416015Y-12928484D01*
X14416015Y-12928484D02*
X14406491Y-12918960D01*
X14406491Y-12918960D02*
X14416015Y-12909436D01*
X14416015Y-12909436D02*
X14416015Y-12928484D01*
X14549348Y-12728484D02*
X14568396Y-12728484D01*
X14568396Y-12728484D02*
X14587444Y-12738008D01*
X14587444Y-12738008D02*
X14596967Y-12747531D01*
X14596967Y-12747531D02*
X14606491Y-12766579D01*
X14606491Y-12766579D02*
X14616015Y-12804674D01*
X14616015Y-12804674D02*
X14616015Y-12852293D01*
X14616015Y-12852293D02*
X14606491Y-12890388D01*
X14606491Y-12890388D02*
X14596967Y-12909436D01*
X14596967Y-12909436D02*
X14587444Y-12918960D01*
X14587444Y-12918960D02*
X14568396Y-12928484D01*
X14568396Y-12928484D02*
X14549348Y-12928484D01*
X14549348Y-12928484D02*
X14530301Y-12918960D01*
X14530301Y-12918960D02*
X14520777Y-12909436D01*
X14520777Y-12909436D02*
X14511253Y-12890388D01*
X14511253Y-12890388D02*
X14501729Y-12852293D01*
X14501729Y-12852293D02*
X14501729Y-12804674D01*
X14501729Y-12804674D02*
X14511253Y-12766579D01*
X14511253Y-12766579D02*
X14520777Y-12747531D01*
X14520777Y-12747531D02*
X14530301Y-12738008D01*
X14530301Y-12738008D02*
X14549348Y-12728484D01*
X14692206Y-12747531D02*
X14701729Y-12738008D01*
X14701729Y-12738008D02*
X14720777Y-12728484D01*
X14720777Y-12728484D02*
X14768396Y-12728484D01*
X14768396Y-12728484D02*
X14787444Y-12738008D01*
X14787444Y-12738008D02*
X14796967Y-12747531D01*
X14796967Y-12747531D02*
X14806491Y-12766579D01*
X14806491Y-12766579D02*
X14806491Y-12785627D01*
X14806491Y-12785627D02*
X14796967Y-12814198D01*
X14796967Y-12814198D02*
X14682682Y-12928484D01*
X14682682Y-12928484D02*
X14806491Y-12928484D01*
X14901729Y-12928484D02*
X14939825Y-12928484D01*
X14939825Y-12928484D02*
X14958872Y-12918960D01*
X14958872Y-12918960D02*
X14968396Y-12909436D01*
X14968396Y-12909436D02*
X14987444Y-12880865D01*
X14987444Y-12880865D02*
X14996967Y-12842769D01*
X14996967Y-12842769D02*
X14996967Y-12766579D01*
X14996967Y-12766579D02*
X14987444Y-12747531D01*
X14987444Y-12747531D02*
X14977920Y-12738008D01*
X14977920Y-12738008D02*
X14958872Y-12728484D01*
X14958872Y-12728484D02*
X14920777Y-12728484D01*
X14920777Y-12728484D02*
X14901729Y-12738008D01*
X14901729Y-12738008D02*
X14892206Y-12747531D01*
X14892206Y-12747531D02*
X14882682Y-12766579D01*
X14882682Y-12766579D02*
X14882682Y-12814198D01*
X14882682Y-12814198D02*
X14892206Y-12833246D01*
X14892206Y-12833246D02*
X14901729Y-12842769D01*
X14901729Y-12842769D02*
X14920777Y-12852293D01*
X14920777Y-12852293D02*
X14958872Y-12852293D01*
X14958872Y-12852293D02*
X14977920Y-12842769D01*
X14977920Y-12842769D02*
X14987444Y-12833246D01*
X14987444Y-12833246D02*
X14996967Y-12814198D01*
X15177920Y-12728484D02*
X15082682Y-12728484D01*
X15082682Y-12728484D02*
X15073158Y-12823722D01*
X15073158Y-12823722D02*
X15082682Y-12814198D01*
X15082682Y-12814198D02*
X15101729Y-12804674D01*
X15101729Y-12804674D02*
X15149348Y-12804674D01*
X15149348Y-12804674D02*
X15168396Y-12814198D01*
X15168396Y-12814198D02*
X15177920Y-12823722D01*
X15177920Y-12823722D02*
X15187444Y-12842769D01*
X15187444Y-12842769D02*
X15187444Y-12890388D01*
X15187444Y-12890388D02*
X15177920Y-12909436D01*
X15177920Y-12909436D02*
X15168396Y-12918960D01*
X15168396Y-12918960D02*
X15149348Y-12928484D01*
X15149348Y-12928484D02*
X15101729Y-12928484D01*
X15101729Y-12928484D02*
X15082682Y-12918960D01*
X15082682Y-12918960D02*
X15073158Y-12909436D01*
X15263634Y-12728484D02*
X15263634Y-12766579D01*
X15339825Y-12728484D02*
X15339825Y-12766579D01*
X15635063Y-13004674D02*
X15625539Y-12995150D01*
X15625539Y-12995150D02*
X15606491Y-12966579D01*
X15606491Y-12966579D02*
X15596968Y-12947531D01*
X15596968Y-12947531D02*
X15587444Y-12918960D01*
X15587444Y-12918960D02*
X15577920Y-12871341D01*
X15577920Y-12871341D02*
X15577920Y-12833246D01*
X15577920Y-12833246D02*
X15587444Y-12785627D01*
X15587444Y-12785627D02*
X15596968Y-12757055D01*
X15596968Y-12757055D02*
X15606491Y-12738008D01*
X15606491Y-12738008D02*
X15625539Y-12709436D01*
X15625539Y-12709436D02*
X15635063Y-12699912D01*
X15796968Y-12728484D02*
X15758872Y-12728484D01*
X15758872Y-12728484D02*
X15739825Y-12738008D01*
X15739825Y-12738008D02*
X15730301Y-12747531D01*
X15730301Y-12747531D02*
X15711253Y-12776103D01*
X15711253Y-12776103D02*
X15701729Y-12814198D01*
X15701729Y-12814198D02*
X15701729Y-12890388D01*
X15701729Y-12890388D02*
X15711253Y-12909436D01*
X15711253Y-12909436D02*
X15720777Y-12918960D01*
X15720777Y-12918960D02*
X15739825Y-12928484D01*
X15739825Y-12928484D02*
X15777920Y-12928484D01*
X15777920Y-12928484D02*
X15796968Y-12918960D01*
X15796968Y-12918960D02*
X15806491Y-12909436D01*
X15806491Y-12909436D02*
X15816015Y-12890388D01*
X15816015Y-12890388D02*
X15816015Y-12842769D01*
X15816015Y-12842769D02*
X15806491Y-12823722D01*
X15806491Y-12823722D02*
X15796968Y-12814198D01*
X15796968Y-12814198D02*
X15777920Y-12804674D01*
X15777920Y-12804674D02*
X15739825Y-12804674D01*
X15739825Y-12804674D02*
X15720777Y-12814198D01*
X15720777Y-12814198D02*
X15711253Y-12823722D01*
X15711253Y-12823722D02*
X15701729Y-12842769D01*
X16054110Y-12928484D02*
X16054110Y-12728484D01*
X16139825Y-12928484D02*
X16139825Y-12823722D01*
X16139825Y-12823722D02*
X16130301Y-12804674D01*
X16130301Y-12804674D02*
X16111253Y-12795150D01*
X16111253Y-12795150D02*
X16082682Y-12795150D01*
X16082682Y-12795150D02*
X16063634Y-12804674D01*
X16063634Y-12804674D02*
X16054110Y-12814198D01*
X16263634Y-12928484D02*
X16244587Y-12918960D01*
X16244587Y-12918960D02*
X16235063Y-12909436D01*
X16235063Y-12909436D02*
X16225539Y-12890388D01*
X16225539Y-12890388D02*
X16225539Y-12833246D01*
X16225539Y-12833246D02*
X16235063Y-12814198D01*
X16235063Y-12814198D02*
X16244587Y-12804674D01*
X16244587Y-12804674D02*
X16263634Y-12795150D01*
X16263634Y-12795150D02*
X16292206Y-12795150D01*
X16292206Y-12795150D02*
X16311253Y-12804674D01*
X16311253Y-12804674D02*
X16320777Y-12814198D01*
X16320777Y-12814198D02*
X16330301Y-12833246D01*
X16330301Y-12833246D02*
X16330301Y-12890388D01*
X16330301Y-12890388D02*
X16320777Y-12909436D01*
X16320777Y-12909436D02*
X16311253Y-12918960D01*
X16311253Y-12918960D02*
X16292206Y-12928484D01*
X16292206Y-12928484D02*
X16263634Y-12928484D01*
X16444587Y-12928484D02*
X16425539Y-12918960D01*
X16425539Y-12918960D02*
X16416015Y-12899912D01*
X16416015Y-12899912D02*
X16416015Y-12728484D01*
X16596968Y-12918960D02*
X16577920Y-12928484D01*
X16577920Y-12928484D02*
X16539825Y-12928484D01*
X16539825Y-12928484D02*
X16520777Y-12918960D01*
X16520777Y-12918960D02*
X16511253Y-12899912D01*
X16511253Y-12899912D02*
X16511253Y-12823722D01*
X16511253Y-12823722D02*
X16520777Y-12804674D01*
X16520777Y-12804674D02*
X16539825Y-12795150D01*
X16539825Y-12795150D02*
X16577920Y-12795150D01*
X16577920Y-12795150D02*
X16596968Y-12804674D01*
X16596968Y-12804674D02*
X16606491Y-12823722D01*
X16606491Y-12823722D02*
X16606491Y-12842769D01*
X16606491Y-12842769D02*
X16511253Y-12861817D01*
X16682682Y-12918960D02*
X16701730Y-12928484D01*
X16701730Y-12928484D02*
X16739825Y-12928484D01*
X16739825Y-12928484D02*
X16758872Y-12918960D01*
X16758872Y-12918960D02*
X16768396Y-12899912D01*
X16768396Y-12899912D02*
X16768396Y-12890388D01*
X16768396Y-12890388D02*
X16758872Y-12871341D01*
X16758872Y-12871341D02*
X16739825Y-12861817D01*
X16739825Y-12861817D02*
X16711253Y-12861817D01*
X16711253Y-12861817D02*
X16692206Y-12852293D01*
X16692206Y-12852293D02*
X16682682Y-12833246D01*
X16682682Y-12833246D02*
X16682682Y-12823722D01*
X16682682Y-12823722D02*
X16692206Y-12804674D01*
X16692206Y-12804674D02*
X16711253Y-12795150D01*
X16711253Y-12795150D02*
X16739825Y-12795150D01*
X16739825Y-12795150D02*
X16758872Y-12804674D01*
X16835063Y-13004674D02*
X16844587Y-12995150D01*
X16844587Y-12995150D02*
X16863634Y-12966579D01*
X16863634Y-12966579D02*
X16873158Y-12947531D01*
X16873158Y-12947531D02*
X16882682Y-12918960D01*
X16882682Y-12918960D02*
X16892206Y-12871341D01*
X16892206Y-12871341D02*
X16892206Y-12833246D01*
X16892206Y-12833246D02*
X16882682Y-12785627D01*
X16882682Y-12785627D02*
X16873158Y-12757055D01*
X16873158Y-12757055D02*
X16863634Y-12738008D01*
X16863634Y-12738008D02*
X16844587Y-12709436D01*
X16844587Y-12709436D02*
X16835063Y-12699912D01*
D13*
X12060000Y-13101000D02*
G75*
G03*
X12060000Y-13101000I-40000J0D01*
G01*
D11*
X12358872Y-12992484D02*
X12377920Y-12992484D01*
X12377920Y-12992484D02*
X12396967Y-13002008D01*
X12396967Y-13002008D02*
X12406491Y-13011531D01*
X12406491Y-13011531D02*
X12416015Y-13030579D01*
X12416015Y-13030579D02*
X12425539Y-13068674D01*
X12425539Y-13068674D02*
X12425539Y-13116293D01*
X12425539Y-13116293D02*
X12416015Y-13154388D01*
X12416015Y-13154388D02*
X12406491Y-13173436D01*
X12406491Y-13173436D02*
X12396967Y-13182960D01*
X12396967Y-13182960D02*
X12377920Y-13192484D01*
X12377920Y-13192484D02*
X12358872Y-13192484D01*
X12358872Y-13192484D02*
X12339824Y-13182960D01*
X12339824Y-13182960D02*
X12330301Y-13173436D01*
X12330301Y-13173436D02*
X12320777Y-13154388D01*
X12320777Y-13154388D02*
X12311253Y-13116293D01*
X12311253Y-13116293D02*
X12311253Y-13068674D01*
X12311253Y-13068674D02*
X12320777Y-13030579D01*
X12320777Y-13030579D02*
X12330301Y-13011531D01*
X12330301Y-13011531D02*
X12339824Y-13002008D01*
X12339824Y-13002008D02*
X12358872Y-12992484D01*
X12511253Y-13173436D02*
X12520777Y-13182960D01*
X12520777Y-13182960D02*
X12511253Y-13192484D01*
X12511253Y-13192484D02*
X12501729Y-13182960D01*
X12501729Y-13182960D02*
X12511253Y-13173436D01*
X12511253Y-13173436D02*
X12511253Y-13192484D01*
X12635062Y-13078198D02*
X12616015Y-13068674D01*
X12616015Y-13068674D02*
X12606491Y-13059150D01*
X12606491Y-13059150D02*
X12596967Y-13040103D01*
X12596967Y-13040103D02*
X12596967Y-13030579D01*
X12596967Y-13030579D02*
X12606491Y-13011531D01*
X12606491Y-13011531D02*
X12616015Y-13002008D01*
X12616015Y-13002008D02*
X12635062Y-12992484D01*
X12635062Y-12992484D02*
X12673158Y-12992484D01*
X12673158Y-12992484D02*
X12692205Y-13002008D01*
X12692205Y-13002008D02*
X12701729Y-13011531D01*
X12701729Y-13011531D02*
X12711253Y-13030579D01*
X12711253Y-13030579D02*
X12711253Y-13040103D01*
X12711253Y-13040103D02*
X12701729Y-13059150D01*
X12701729Y-13059150D02*
X12692205Y-13068674D01*
X12692205Y-13068674D02*
X12673158Y-13078198D01*
X12673158Y-13078198D02*
X12635062Y-13078198D01*
X12635062Y-13078198D02*
X12616015Y-13087722D01*
X12616015Y-13087722D02*
X12606491Y-13097246D01*
X12606491Y-13097246D02*
X12596967Y-13116293D01*
X12596967Y-13116293D02*
X12596967Y-13154388D01*
X12596967Y-13154388D02*
X12606491Y-13173436D01*
X12606491Y-13173436D02*
X12616015Y-13182960D01*
X12616015Y-13182960D02*
X12635062Y-13192484D01*
X12635062Y-13192484D02*
X12673158Y-13192484D01*
X12673158Y-13192484D02*
X12692205Y-13182960D01*
X12692205Y-13182960D02*
X12701729Y-13173436D01*
X12701729Y-13173436D02*
X12711253Y-13154388D01*
X12711253Y-13154388D02*
X12711253Y-13116293D01*
X12711253Y-13116293D02*
X12701729Y-13097246D01*
X12701729Y-13097246D02*
X12692205Y-13087722D01*
X12692205Y-13087722D02*
X12673158Y-13078198D01*
X12835062Y-12992484D02*
X12854110Y-12992484D01*
X12854110Y-12992484D02*
X12873158Y-13002008D01*
X12873158Y-13002008D02*
X12882682Y-13011531D01*
X12882682Y-13011531D02*
X12892205Y-13030579D01*
X12892205Y-13030579D02*
X12901729Y-13068674D01*
X12901729Y-13068674D02*
X12901729Y-13116293D01*
X12901729Y-13116293D02*
X12892205Y-13154388D01*
X12892205Y-13154388D02*
X12882682Y-13173436D01*
X12882682Y-13173436D02*
X12873158Y-13182960D01*
X12873158Y-13182960D02*
X12854110Y-13192484D01*
X12854110Y-13192484D02*
X12835062Y-13192484D01*
X12835062Y-13192484D02*
X12816015Y-13182960D01*
X12816015Y-13182960D02*
X12806491Y-13173436D01*
X12806491Y-13173436D02*
X12796967Y-13154388D01*
X12796967Y-13154388D02*
X12787443Y-13116293D01*
X12787443Y-13116293D02*
X12787443Y-13068674D01*
X12787443Y-13068674D02*
X12796967Y-13030579D01*
X12796967Y-13030579D02*
X12806491Y-13011531D01*
X12806491Y-13011531D02*
X12816015Y-13002008D01*
X12816015Y-13002008D02*
X12835062Y-12992484D01*
X13025539Y-12992484D02*
X13044586Y-12992484D01*
X13044586Y-12992484D02*
X13063634Y-13002008D01*
X13063634Y-13002008D02*
X13073158Y-13011531D01*
X13073158Y-13011531D02*
X13082682Y-13030579D01*
X13082682Y-13030579D02*
X13092205Y-13068674D01*
X13092205Y-13068674D02*
X13092205Y-13116293D01*
X13092205Y-13116293D02*
X13082682Y-13154388D01*
X13082682Y-13154388D02*
X13073158Y-13173436D01*
X13073158Y-13173436D02*
X13063634Y-13182960D01*
X13063634Y-13182960D02*
X13044586Y-13192484D01*
X13044586Y-13192484D02*
X13025539Y-13192484D01*
X13025539Y-13192484D02*
X13006491Y-13182960D01*
X13006491Y-13182960D02*
X12996967Y-13173436D01*
X12996967Y-13173436D02*
X12987443Y-13154388D01*
X12987443Y-13154388D02*
X12977920Y-13116293D01*
X12977920Y-13116293D02*
X12977920Y-13068674D01*
X12977920Y-13068674D02*
X12987443Y-13030579D01*
X12987443Y-13030579D02*
X12996967Y-13011531D01*
X12996967Y-13011531D02*
X13006491Y-13002008D01*
X13006491Y-13002008D02*
X13025539Y-12992484D01*
X13177920Y-13192484D02*
X13177920Y-13059150D01*
X13177920Y-13078198D02*
X13187443Y-13068674D01*
X13187443Y-13068674D02*
X13206491Y-13059150D01*
X13206491Y-13059150D02*
X13235063Y-13059150D01*
X13235063Y-13059150D02*
X13254110Y-13068674D01*
X13254110Y-13068674D02*
X13263634Y-13087722D01*
X13263634Y-13087722D02*
X13263634Y-13192484D01*
X13263634Y-13087722D02*
X13273158Y-13068674D01*
X13273158Y-13068674D02*
X13292205Y-13059150D01*
X13292205Y-13059150D02*
X13320777Y-13059150D01*
X13320777Y-13059150D02*
X13339824Y-13068674D01*
X13339824Y-13068674D02*
X13349348Y-13087722D01*
X13349348Y-13087722D02*
X13349348Y-13192484D01*
X13444586Y-13192484D02*
X13444586Y-13059150D01*
X13444586Y-13078198D02*
X13454110Y-13068674D01*
X13454110Y-13068674D02*
X13473158Y-13059150D01*
X13473158Y-13059150D02*
X13501729Y-13059150D01*
X13501729Y-13059150D02*
X13520777Y-13068674D01*
X13520777Y-13068674D02*
X13530301Y-13087722D01*
X13530301Y-13087722D02*
X13530301Y-13192484D01*
X13530301Y-13087722D02*
X13539824Y-13068674D01*
X13539824Y-13068674D02*
X13558872Y-13059150D01*
X13558872Y-13059150D02*
X13587443Y-13059150D01*
X13587443Y-13059150D02*
X13606491Y-13068674D01*
X13606491Y-13068674D02*
X13616015Y-13087722D01*
X13616015Y-13087722D02*
X13616015Y-13192484D01*
X14006491Y-12982960D02*
X13835063Y-13240103D01*
X14263634Y-12992484D02*
X14282682Y-12992484D01*
X14282682Y-12992484D02*
X14301729Y-13002008D01*
X14301729Y-13002008D02*
X14311253Y-13011531D01*
X14311253Y-13011531D02*
X14320777Y-13030579D01*
X14320777Y-13030579D02*
X14330301Y-13068674D01*
X14330301Y-13068674D02*
X14330301Y-13116293D01*
X14330301Y-13116293D02*
X14320777Y-13154388D01*
X14320777Y-13154388D02*
X14311253Y-13173436D01*
X14311253Y-13173436D02*
X14301729Y-13182960D01*
X14301729Y-13182960D02*
X14282682Y-13192484D01*
X14282682Y-13192484D02*
X14263634Y-13192484D01*
X14263634Y-13192484D02*
X14244586Y-13182960D01*
X14244586Y-13182960D02*
X14235063Y-13173436D01*
X14235063Y-13173436D02*
X14225539Y-13154388D01*
X14225539Y-13154388D02*
X14216015Y-13116293D01*
X14216015Y-13116293D02*
X14216015Y-13068674D01*
X14216015Y-13068674D02*
X14225539Y-13030579D01*
X14225539Y-13030579D02*
X14235063Y-13011531D01*
X14235063Y-13011531D02*
X14244586Y-13002008D01*
X14244586Y-13002008D02*
X14263634Y-12992484D01*
X14416015Y-13173436D02*
X14425539Y-13182960D01*
X14425539Y-13182960D02*
X14416015Y-13192484D01*
X14416015Y-13192484D02*
X14406491Y-13182960D01*
X14406491Y-13182960D02*
X14416015Y-13173436D01*
X14416015Y-13173436D02*
X14416015Y-13192484D01*
X14549348Y-12992484D02*
X14568396Y-12992484D01*
X14568396Y-12992484D02*
X14587444Y-13002008D01*
X14587444Y-13002008D02*
X14596967Y-13011531D01*
X14596967Y-13011531D02*
X14606491Y-13030579D01*
X14606491Y-13030579D02*
X14616015Y-13068674D01*
X14616015Y-13068674D02*
X14616015Y-13116293D01*
X14616015Y-13116293D02*
X14606491Y-13154388D01*
X14606491Y-13154388D02*
X14596967Y-13173436D01*
X14596967Y-13173436D02*
X14587444Y-13182960D01*
X14587444Y-13182960D02*
X14568396Y-13192484D01*
X14568396Y-13192484D02*
X14549348Y-13192484D01*
X14549348Y-13192484D02*
X14530301Y-13182960D01*
X14530301Y-13182960D02*
X14520777Y-13173436D01*
X14520777Y-13173436D02*
X14511253Y-13154388D01*
X14511253Y-13154388D02*
X14501729Y-13116293D01*
X14501729Y-13116293D02*
X14501729Y-13068674D01*
X14501729Y-13068674D02*
X14511253Y-13030579D01*
X14511253Y-13030579D02*
X14520777Y-13011531D01*
X14520777Y-13011531D02*
X14530301Y-13002008D01*
X14530301Y-13002008D02*
X14549348Y-12992484D01*
X14682682Y-12992484D02*
X14806491Y-12992484D01*
X14806491Y-12992484D02*
X14739825Y-13068674D01*
X14739825Y-13068674D02*
X14768396Y-13068674D01*
X14768396Y-13068674D02*
X14787444Y-13078198D01*
X14787444Y-13078198D02*
X14796967Y-13087722D01*
X14796967Y-13087722D02*
X14806491Y-13106769D01*
X14806491Y-13106769D02*
X14806491Y-13154388D01*
X14806491Y-13154388D02*
X14796967Y-13173436D01*
X14796967Y-13173436D02*
X14787444Y-13182960D01*
X14787444Y-13182960D02*
X14768396Y-13192484D01*
X14768396Y-13192484D02*
X14711253Y-13192484D01*
X14711253Y-13192484D02*
X14692206Y-13182960D01*
X14692206Y-13182960D02*
X14682682Y-13173436D01*
X14996967Y-13192484D02*
X14882682Y-13192484D01*
X14939825Y-13192484D02*
X14939825Y-12992484D01*
X14939825Y-12992484D02*
X14920777Y-13021055D01*
X14920777Y-13021055D02*
X14901729Y-13040103D01*
X14901729Y-13040103D02*
X14882682Y-13049627D01*
X15177920Y-12992484D02*
X15082682Y-12992484D01*
X15082682Y-12992484D02*
X15073158Y-13087722D01*
X15073158Y-13087722D02*
X15082682Y-13078198D01*
X15082682Y-13078198D02*
X15101729Y-13068674D01*
X15101729Y-13068674D02*
X15149348Y-13068674D01*
X15149348Y-13068674D02*
X15168396Y-13078198D01*
X15168396Y-13078198D02*
X15177920Y-13087722D01*
X15177920Y-13087722D02*
X15187444Y-13106769D01*
X15187444Y-13106769D02*
X15187444Y-13154388D01*
X15187444Y-13154388D02*
X15177920Y-13173436D01*
X15177920Y-13173436D02*
X15168396Y-13182960D01*
X15168396Y-13182960D02*
X15149348Y-13192484D01*
X15149348Y-13192484D02*
X15101729Y-13192484D01*
X15101729Y-13192484D02*
X15082682Y-13182960D01*
X15082682Y-13182960D02*
X15073158Y-13173436D01*
X15263634Y-12992484D02*
X15263634Y-13030579D01*
X15339825Y-12992484D02*
X15339825Y-13030579D01*
X15635063Y-13268674D02*
X15625539Y-13259150D01*
X15625539Y-13259150D02*
X15606491Y-13230579D01*
X15606491Y-13230579D02*
X15596968Y-13211531D01*
X15596968Y-13211531D02*
X15587444Y-13182960D01*
X15587444Y-13182960D02*
X15577920Y-13135341D01*
X15577920Y-13135341D02*
X15577920Y-13097246D01*
X15577920Y-13097246D02*
X15587444Y-13049627D01*
X15587444Y-13049627D02*
X15596968Y-13021055D01*
X15596968Y-13021055D02*
X15606491Y-13002008D01*
X15606491Y-13002008D02*
X15625539Y-12973436D01*
X15625539Y-12973436D02*
X15635063Y-12963912D01*
X15816015Y-13192484D02*
X15701729Y-13192484D01*
X15758872Y-13192484D02*
X15758872Y-12992484D01*
X15758872Y-12992484D02*
X15739825Y-13021055D01*
X15739825Y-13021055D02*
X15720777Y-13040103D01*
X15720777Y-13040103D02*
X15701729Y-13049627D01*
X15930301Y-13078198D02*
X15911253Y-13068674D01*
X15911253Y-13068674D02*
X15901729Y-13059150D01*
X15901729Y-13059150D02*
X15892206Y-13040103D01*
X15892206Y-13040103D02*
X15892206Y-13030579D01*
X15892206Y-13030579D02*
X15901729Y-13011531D01*
X15901729Y-13011531D02*
X15911253Y-13002008D01*
X15911253Y-13002008D02*
X15930301Y-12992484D01*
X15930301Y-12992484D02*
X15968396Y-12992484D01*
X15968396Y-12992484D02*
X15987444Y-13002008D01*
X15987444Y-13002008D02*
X15996968Y-13011531D01*
X15996968Y-13011531D02*
X16006491Y-13030579D01*
X16006491Y-13030579D02*
X16006491Y-13040103D01*
X16006491Y-13040103D02*
X15996968Y-13059150D01*
X15996968Y-13059150D02*
X15987444Y-13068674D01*
X15987444Y-13068674D02*
X15968396Y-13078198D01*
X15968396Y-13078198D02*
X15930301Y-13078198D01*
X15930301Y-13078198D02*
X15911253Y-13087722D01*
X15911253Y-13087722D02*
X15901729Y-13097246D01*
X15901729Y-13097246D02*
X15892206Y-13116293D01*
X15892206Y-13116293D02*
X15892206Y-13154388D01*
X15892206Y-13154388D02*
X15901729Y-13173436D01*
X15901729Y-13173436D02*
X15911253Y-13182960D01*
X15911253Y-13182960D02*
X15930301Y-13192484D01*
X15930301Y-13192484D02*
X15968396Y-13192484D01*
X15968396Y-13192484D02*
X15987444Y-13182960D01*
X15987444Y-13182960D02*
X15996968Y-13173436D01*
X15996968Y-13173436D02*
X16006491Y-13154388D01*
X16006491Y-13154388D02*
X16006491Y-13116293D01*
X16006491Y-13116293D02*
X15996968Y-13097246D01*
X15996968Y-13097246D02*
X15987444Y-13087722D01*
X15987444Y-13087722D02*
X15968396Y-13078198D01*
X16244587Y-13192484D02*
X16244587Y-12992484D01*
X16330301Y-13192484D02*
X16330301Y-13087722D01*
X16330301Y-13087722D02*
X16320777Y-13068674D01*
X16320777Y-13068674D02*
X16301730Y-13059150D01*
X16301730Y-13059150D02*
X16273158Y-13059150D01*
X16273158Y-13059150D02*
X16254110Y-13068674D01*
X16254110Y-13068674D02*
X16244587Y-13078198D01*
X16454110Y-13192484D02*
X16435063Y-13182960D01*
X16435063Y-13182960D02*
X16425539Y-13173436D01*
X16425539Y-13173436D02*
X16416015Y-13154388D01*
X16416015Y-13154388D02*
X16416015Y-13097246D01*
X16416015Y-13097246D02*
X16425539Y-13078198D01*
X16425539Y-13078198D02*
X16435063Y-13068674D01*
X16435063Y-13068674D02*
X16454110Y-13059150D01*
X16454110Y-13059150D02*
X16482682Y-13059150D01*
X16482682Y-13059150D02*
X16501730Y-13068674D01*
X16501730Y-13068674D02*
X16511253Y-13078198D01*
X16511253Y-13078198D02*
X16520777Y-13097246D01*
X16520777Y-13097246D02*
X16520777Y-13154388D01*
X16520777Y-13154388D02*
X16511253Y-13173436D01*
X16511253Y-13173436D02*
X16501730Y-13182960D01*
X16501730Y-13182960D02*
X16482682Y-13192484D01*
X16482682Y-13192484D02*
X16454110Y-13192484D01*
X16635063Y-13192484D02*
X16616015Y-13182960D01*
X16616015Y-13182960D02*
X16606491Y-13163912D01*
X16606491Y-13163912D02*
X16606491Y-12992484D01*
X16787444Y-13182960D02*
X16768396Y-13192484D01*
X16768396Y-13192484D02*
X16730301Y-13192484D01*
X16730301Y-13192484D02*
X16711253Y-13182960D01*
X16711253Y-13182960D02*
X16701730Y-13163912D01*
X16701730Y-13163912D02*
X16701730Y-13087722D01*
X16701730Y-13087722D02*
X16711253Y-13068674D01*
X16711253Y-13068674D02*
X16730301Y-13059150D01*
X16730301Y-13059150D02*
X16768396Y-13059150D01*
X16768396Y-13059150D02*
X16787444Y-13068674D01*
X16787444Y-13068674D02*
X16796968Y-13087722D01*
X16796968Y-13087722D02*
X16796968Y-13106769D01*
X16796968Y-13106769D02*
X16701730Y-13125817D01*
X16873158Y-13182960D02*
X16892206Y-13192484D01*
X16892206Y-13192484D02*
X16930301Y-13192484D01*
X16930301Y-13192484D02*
X16949349Y-13182960D01*
X16949349Y-13182960D02*
X16958873Y-13163912D01*
X16958873Y-13163912D02*
X16958873Y-13154388D01*
X16958873Y-13154388D02*
X16949349Y-13135341D01*
X16949349Y-13135341D02*
X16930301Y-13125817D01*
X16930301Y-13125817D02*
X16901730Y-13125817D01*
X16901730Y-13125817D02*
X16882682Y-13116293D01*
X16882682Y-13116293D02*
X16873158Y-13097246D01*
X16873158Y-13097246D02*
X16873158Y-13087722D01*
X16873158Y-13087722D02*
X16882682Y-13068674D01*
X16882682Y-13068674D02*
X16901730Y-13059150D01*
X16901730Y-13059150D02*
X16930301Y-13059150D01*
X16930301Y-13059150D02*
X16949349Y-13068674D01*
X17025539Y-13268674D02*
X17035063Y-13259150D01*
X17035063Y-13259150D02*
X17054111Y-13230579D01*
X17054111Y-13230579D02*
X17063634Y-13211531D01*
X17063634Y-13211531D02*
X17073158Y-13182960D01*
X17073158Y-13182960D02*
X17082682Y-13135341D01*
X17082682Y-13135341D02*
X17082682Y-13097246D01*
X17082682Y-13097246D02*
X17073158Y-13049627D01*
X17073158Y-13049627D02*
X17063634Y-13021055D01*
X17063634Y-13021055D02*
X17054111Y-13002008D01*
X17054111Y-13002008D02*
X17035063Y-12973436D01*
X17035063Y-12973436D02*
X17025539Y-12963912D01*
D14*
X12015000Y-13320000D02*
X12015000Y-13410000D01*
X11970000Y-13365000D02*
X12060000Y-13365000D01*
D11*
X12358872Y-13256484D02*
X12377920Y-13256484D01*
X12377920Y-13256484D02*
X12396967Y-13266008D01*
X12396967Y-13266008D02*
X12406491Y-13275531D01*
X12406491Y-13275531D02*
X12416015Y-13294579D01*
X12416015Y-13294579D02*
X12425539Y-13332674D01*
X12425539Y-13332674D02*
X12425539Y-13380293D01*
X12425539Y-13380293D02*
X12416015Y-13418388D01*
X12416015Y-13418388D02*
X12406491Y-13437436D01*
X12406491Y-13437436D02*
X12396967Y-13446960D01*
X12396967Y-13446960D02*
X12377920Y-13456484D01*
X12377920Y-13456484D02*
X12358872Y-13456484D01*
X12358872Y-13456484D02*
X12339824Y-13446960D01*
X12339824Y-13446960D02*
X12330301Y-13437436D01*
X12330301Y-13437436D02*
X12320777Y-13418388D01*
X12320777Y-13418388D02*
X12311253Y-13380293D01*
X12311253Y-13380293D02*
X12311253Y-13332674D01*
X12311253Y-13332674D02*
X12320777Y-13294579D01*
X12320777Y-13294579D02*
X12330301Y-13275531D01*
X12330301Y-13275531D02*
X12339824Y-13266008D01*
X12339824Y-13266008D02*
X12358872Y-13256484D01*
X12511253Y-13437436D02*
X12520777Y-13446960D01*
X12520777Y-13446960D02*
X12511253Y-13456484D01*
X12511253Y-13456484D02*
X12501729Y-13446960D01*
X12501729Y-13446960D02*
X12511253Y-13437436D01*
X12511253Y-13437436D02*
X12511253Y-13456484D01*
X12616015Y-13456484D02*
X12654110Y-13456484D01*
X12654110Y-13456484D02*
X12673158Y-13446960D01*
X12673158Y-13446960D02*
X12682682Y-13437436D01*
X12682682Y-13437436D02*
X12701729Y-13408865D01*
X12701729Y-13408865D02*
X12711253Y-13370769D01*
X12711253Y-13370769D02*
X12711253Y-13294579D01*
X12711253Y-13294579D02*
X12701729Y-13275531D01*
X12701729Y-13275531D02*
X12692205Y-13266008D01*
X12692205Y-13266008D02*
X12673158Y-13256484D01*
X12673158Y-13256484D02*
X12635062Y-13256484D01*
X12635062Y-13256484D02*
X12616015Y-13266008D01*
X12616015Y-13266008D02*
X12606491Y-13275531D01*
X12606491Y-13275531D02*
X12596967Y-13294579D01*
X12596967Y-13294579D02*
X12596967Y-13342198D01*
X12596967Y-13342198D02*
X12606491Y-13361246D01*
X12606491Y-13361246D02*
X12616015Y-13370769D01*
X12616015Y-13370769D02*
X12635062Y-13380293D01*
X12635062Y-13380293D02*
X12673158Y-13380293D01*
X12673158Y-13380293D02*
X12692205Y-13370769D01*
X12692205Y-13370769D02*
X12701729Y-13361246D01*
X12701729Y-13361246D02*
X12711253Y-13342198D01*
X12835062Y-13256484D02*
X12854110Y-13256484D01*
X12854110Y-13256484D02*
X12873158Y-13266008D01*
X12873158Y-13266008D02*
X12882682Y-13275531D01*
X12882682Y-13275531D02*
X12892205Y-13294579D01*
X12892205Y-13294579D02*
X12901729Y-13332674D01*
X12901729Y-13332674D02*
X12901729Y-13380293D01*
X12901729Y-13380293D02*
X12892205Y-13418388D01*
X12892205Y-13418388D02*
X12882682Y-13437436D01*
X12882682Y-13437436D02*
X12873158Y-13446960D01*
X12873158Y-13446960D02*
X12854110Y-13456484D01*
X12854110Y-13456484D02*
X12835062Y-13456484D01*
X12835062Y-13456484D02*
X12816015Y-13446960D01*
X12816015Y-13446960D02*
X12806491Y-13437436D01*
X12806491Y-13437436D02*
X12796967Y-13418388D01*
X12796967Y-13418388D02*
X12787443Y-13380293D01*
X12787443Y-13380293D02*
X12787443Y-13332674D01*
X12787443Y-13332674D02*
X12796967Y-13294579D01*
X12796967Y-13294579D02*
X12806491Y-13275531D01*
X12806491Y-13275531D02*
X12816015Y-13266008D01*
X12816015Y-13266008D02*
X12835062Y-13256484D01*
X13025539Y-13256484D02*
X13044586Y-13256484D01*
X13044586Y-13256484D02*
X13063634Y-13266008D01*
X13063634Y-13266008D02*
X13073158Y-13275531D01*
X13073158Y-13275531D02*
X13082682Y-13294579D01*
X13082682Y-13294579D02*
X13092205Y-13332674D01*
X13092205Y-13332674D02*
X13092205Y-13380293D01*
X13092205Y-13380293D02*
X13082682Y-13418388D01*
X13082682Y-13418388D02*
X13073158Y-13437436D01*
X13073158Y-13437436D02*
X13063634Y-13446960D01*
X13063634Y-13446960D02*
X13044586Y-13456484D01*
X13044586Y-13456484D02*
X13025539Y-13456484D01*
X13025539Y-13456484D02*
X13006491Y-13446960D01*
X13006491Y-13446960D02*
X12996967Y-13437436D01*
X12996967Y-13437436D02*
X12987443Y-13418388D01*
X12987443Y-13418388D02*
X12977920Y-13380293D01*
X12977920Y-13380293D02*
X12977920Y-13332674D01*
X12977920Y-13332674D02*
X12987443Y-13294579D01*
X12987443Y-13294579D02*
X12996967Y-13275531D01*
X12996967Y-13275531D02*
X13006491Y-13266008D01*
X13006491Y-13266008D02*
X13025539Y-13256484D01*
X13177920Y-13456484D02*
X13177920Y-13323150D01*
X13177920Y-13342198D02*
X13187443Y-13332674D01*
X13187443Y-13332674D02*
X13206491Y-13323150D01*
X13206491Y-13323150D02*
X13235063Y-13323150D01*
X13235063Y-13323150D02*
X13254110Y-13332674D01*
X13254110Y-13332674D02*
X13263634Y-13351722D01*
X13263634Y-13351722D02*
X13263634Y-13456484D01*
X13263634Y-13351722D02*
X13273158Y-13332674D01*
X13273158Y-13332674D02*
X13292205Y-13323150D01*
X13292205Y-13323150D02*
X13320777Y-13323150D01*
X13320777Y-13323150D02*
X13339824Y-13332674D01*
X13339824Y-13332674D02*
X13349348Y-13351722D01*
X13349348Y-13351722D02*
X13349348Y-13456484D01*
X13444586Y-13456484D02*
X13444586Y-13323150D01*
X13444586Y-13342198D02*
X13454110Y-13332674D01*
X13454110Y-13332674D02*
X13473158Y-13323150D01*
X13473158Y-13323150D02*
X13501729Y-13323150D01*
X13501729Y-13323150D02*
X13520777Y-13332674D01*
X13520777Y-13332674D02*
X13530301Y-13351722D01*
X13530301Y-13351722D02*
X13530301Y-13456484D01*
X13530301Y-13351722D02*
X13539824Y-13332674D01*
X13539824Y-13332674D02*
X13558872Y-13323150D01*
X13558872Y-13323150D02*
X13587443Y-13323150D01*
X13587443Y-13323150D02*
X13606491Y-13332674D01*
X13606491Y-13332674D02*
X13616015Y-13351722D01*
X13616015Y-13351722D02*
X13616015Y-13456484D01*
X14006491Y-13246960D02*
X13835063Y-13504103D01*
X14263634Y-13256484D02*
X14282682Y-13256484D01*
X14282682Y-13256484D02*
X14301729Y-13266008D01*
X14301729Y-13266008D02*
X14311253Y-13275531D01*
X14311253Y-13275531D02*
X14320777Y-13294579D01*
X14320777Y-13294579D02*
X14330301Y-13332674D01*
X14330301Y-13332674D02*
X14330301Y-13380293D01*
X14330301Y-13380293D02*
X14320777Y-13418388D01*
X14320777Y-13418388D02*
X14311253Y-13437436D01*
X14311253Y-13437436D02*
X14301729Y-13446960D01*
X14301729Y-13446960D02*
X14282682Y-13456484D01*
X14282682Y-13456484D02*
X14263634Y-13456484D01*
X14263634Y-13456484D02*
X14244586Y-13446960D01*
X14244586Y-13446960D02*
X14235063Y-13437436D01*
X14235063Y-13437436D02*
X14225539Y-13418388D01*
X14225539Y-13418388D02*
X14216015Y-13380293D01*
X14216015Y-13380293D02*
X14216015Y-13332674D01*
X14216015Y-13332674D02*
X14225539Y-13294579D01*
X14225539Y-13294579D02*
X14235063Y-13275531D01*
X14235063Y-13275531D02*
X14244586Y-13266008D01*
X14244586Y-13266008D02*
X14263634Y-13256484D01*
X14416015Y-13437436D02*
X14425539Y-13446960D01*
X14425539Y-13446960D02*
X14416015Y-13456484D01*
X14416015Y-13456484D02*
X14406491Y-13446960D01*
X14406491Y-13446960D02*
X14416015Y-13437436D01*
X14416015Y-13437436D02*
X14416015Y-13456484D01*
X14549348Y-13256484D02*
X14568396Y-13256484D01*
X14568396Y-13256484D02*
X14587444Y-13266008D01*
X14587444Y-13266008D02*
X14596967Y-13275531D01*
X14596967Y-13275531D02*
X14606491Y-13294579D01*
X14606491Y-13294579D02*
X14616015Y-13332674D01*
X14616015Y-13332674D02*
X14616015Y-13380293D01*
X14616015Y-13380293D02*
X14606491Y-13418388D01*
X14606491Y-13418388D02*
X14596967Y-13437436D01*
X14596967Y-13437436D02*
X14587444Y-13446960D01*
X14587444Y-13446960D02*
X14568396Y-13456484D01*
X14568396Y-13456484D02*
X14549348Y-13456484D01*
X14549348Y-13456484D02*
X14530301Y-13446960D01*
X14530301Y-13446960D02*
X14520777Y-13437436D01*
X14520777Y-13437436D02*
X14511253Y-13418388D01*
X14511253Y-13418388D02*
X14501729Y-13380293D01*
X14501729Y-13380293D02*
X14501729Y-13332674D01*
X14501729Y-13332674D02*
X14511253Y-13294579D01*
X14511253Y-13294579D02*
X14520777Y-13275531D01*
X14520777Y-13275531D02*
X14530301Y-13266008D01*
X14530301Y-13266008D02*
X14549348Y-13256484D01*
X14682682Y-13256484D02*
X14806491Y-13256484D01*
X14806491Y-13256484D02*
X14739825Y-13332674D01*
X14739825Y-13332674D02*
X14768396Y-13332674D01*
X14768396Y-13332674D02*
X14787444Y-13342198D01*
X14787444Y-13342198D02*
X14796967Y-13351722D01*
X14796967Y-13351722D02*
X14806491Y-13370769D01*
X14806491Y-13370769D02*
X14806491Y-13418388D01*
X14806491Y-13418388D02*
X14796967Y-13437436D01*
X14796967Y-13437436D02*
X14787444Y-13446960D01*
X14787444Y-13446960D02*
X14768396Y-13456484D01*
X14768396Y-13456484D02*
X14711253Y-13456484D01*
X14711253Y-13456484D02*
X14692206Y-13446960D01*
X14692206Y-13446960D02*
X14682682Y-13437436D01*
X14987444Y-13256484D02*
X14892206Y-13256484D01*
X14892206Y-13256484D02*
X14882682Y-13351722D01*
X14882682Y-13351722D02*
X14892206Y-13342198D01*
X14892206Y-13342198D02*
X14911253Y-13332674D01*
X14911253Y-13332674D02*
X14958872Y-13332674D01*
X14958872Y-13332674D02*
X14977920Y-13342198D01*
X14977920Y-13342198D02*
X14987444Y-13351722D01*
X14987444Y-13351722D02*
X14996967Y-13370769D01*
X14996967Y-13370769D02*
X14996967Y-13418388D01*
X14996967Y-13418388D02*
X14987444Y-13437436D01*
X14987444Y-13437436D02*
X14977920Y-13446960D01*
X14977920Y-13446960D02*
X14958872Y-13456484D01*
X14958872Y-13456484D02*
X14911253Y-13456484D01*
X14911253Y-13456484D02*
X14892206Y-13446960D01*
X14892206Y-13446960D02*
X14882682Y-13437436D01*
X15168396Y-13323150D02*
X15168396Y-13456484D01*
X15120777Y-13246960D02*
X15073158Y-13389817D01*
X15073158Y-13389817D02*
X15196967Y-13389817D01*
X15263634Y-13256484D02*
X15263634Y-13294579D01*
X15339825Y-13256484D02*
X15339825Y-13294579D01*
X15635063Y-13532674D02*
X15625539Y-13523150D01*
X15625539Y-13523150D02*
X15606491Y-13494579D01*
X15606491Y-13494579D02*
X15596968Y-13475531D01*
X15596968Y-13475531D02*
X15587444Y-13446960D01*
X15587444Y-13446960D02*
X15577920Y-13399341D01*
X15577920Y-13399341D02*
X15577920Y-13361246D01*
X15577920Y-13361246D02*
X15587444Y-13313627D01*
X15587444Y-13313627D02*
X15596968Y-13285055D01*
X15596968Y-13285055D02*
X15606491Y-13266008D01*
X15606491Y-13266008D02*
X15625539Y-13237436D01*
X15625539Y-13237436D02*
X15635063Y-13227912D01*
X15796968Y-13323150D02*
X15796968Y-13456484D01*
X15749348Y-13246960D02*
X15701729Y-13389817D01*
X15701729Y-13389817D02*
X15825539Y-13389817D01*
X16054110Y-13456484D02*
X16054110Y-13256484D01*
X16139825Y-13456484D02*
X16139825Y-13351722D01*
X16139825Y-13351722D02*
X16130301Y-13332674D01*
X16130301Y-13332674D02*
X16111253Y-13323150D01*
X16111253Y-13323150D02*
X16082682Y-13323150D01*
X16082682Y-13323150D02*
X16063634Y-13332674D01*
X16063634Y-13332674D02*
X16054110Y-13342198D01*
X16263634Y-13456484D02*
X16244587Y-13446960D01*
X16244587Y-13446960D02*
X16235063Y-13437436D01*
X16235063Y-13437436D02*
X16225539Y-13418388D01*
X16225539Y-13418388D02*
X16225539Y-13361246D01*
X16225539Y-13361246D02*
X16235063Y-13342198D01*
X16235063Y-13342198D02*
X16244587Y-13332674D01*
X16244587Y-13332674D02*
X16263634Y-13323150D01*
X16263634Y-13323150D02*
X16292206Y-13323150D01*
X16292206Y-13323150D02*
X16311253Y-13332674D01*
X16311253Y-13332674D02*
X16320777Y-13342198D01*
X16320777Y-13342198D02*
X16330301Y-13361246D01*
X16330301Y-13361246D02*
X16330301Y-13418388D01*
X16330301Y-13418388D02*
X16320777Y-13437436D01*
X16320777Y-13437436D02*
X16311253Y-13446960D01*
X16311253Y-13446960D02*
X16292206Y-13456484D01*
X16292206Y-13456484D02*
X16263634Y-13456484D01*
X16444587Y-13456484D02*
X16425539Y-13446960D01*
X16425539Y-13446960D02*
X16416015Y-13427912D01*
X16416015Y-13427912D02*
X16416015Y-13256484D01*
X16596968Y-13446960D02*
X16577920Y-13456484D01*
X16577920Y-13456484D02*
X16539825Y-13456484D01*
X16539825Y-13456484D02*
X16520777Y-13446960D01*
X16520777Y-13446960D02*
X16511253Y-13427912D01*
X16511253Y-13427912D02*
X16511253Y-13351722D01*
X16511253Y-13351722D02*
X16520777Y-13332674D01*
X16520777Y-13332674D02*
X16539825Y-13323150D01*
X16539825Y-13323150D02*
X16577920Y-13323150D01*
X16577920Y-13323150D02*
X16596968Y-13332674D01*
X16596968Y-13332674D02*
X16606491Y-13351722D01*
X16606491Y-13351722D02*
X16606491Y-13370769D01*
X16606491Y-13370769D02*
X16511253Y-13389817D01*
X16682682Y-13446960D02*
X16701730Y-13456484D01*
X16701730Y-13456484D02*
X16739825Y-13456484D01*
X16739825Y-13456484D02*
X16758872Y-13446960D01*
X16758872Y-13446960D02*
X16768396Y-13427912D01*
X16768396Y-13427912D02*
X16768396Y-13418388D01*
X16768396Y-13418388D02*
X16758872Y-13399341D01*
X16758872Y-13399341D02*
X16739825Y-13389817D01*
X16739825Y-13389817D02*
X16711253Y-13389817D01*
X16711253Y-13389817D02*
X16692206Y-13380293D01*
X16692206Y-13380293D02*
X16682682Y-13361246D01*
X16682682Y-13361246D02*
X16682682Y-13351722D01*
X16682682Y-13351722D02*
X16692206Y-13332674D01*
X16692206Y-13332674D02*
X16711253Y-13323150D01*
X16711253Y-13323150D02*
X16739825Y-13323150D01*
X16739825Y-13323150D02*
X16758872Y-13332674D01*
X16835063Y-13532674D02*
X16844587Y-13523150D01*
X16844587Y-13523150D02*
X16863634Y-13494579D01*
X16863634Y-13494579D02*
X16873158Y-13475531D01*
X16873158Y-13475531D02*
X16882682Y-13446960D01*
X16882682Y-13446960D02*
X16892206Y-13399341D01*
X16892206Y-13399341D02*
X16892206Y-13361246D01*
X16892206Y-13361246D02*
X16882682Y-13313627D01*
X16882682Y-13313627D02*
X16873158Y-13285055D01*
X16873158Y-13285055D02*
X16863634Y-13266008D01*
X16863634Y-13266008D02*
X16844587Y-13237436D01*
X16844587Y-13237436D02*
X16835063Y-13227912D01*
D15*
X12037741Y-13682741D02*
X12037741Y-13575259D01*
X11930259Y-13575259D01*
X11930259Y-13682741D01*
X12037741Y-13682741D01*
D11*
X12425539Y-13720484D02*
X12311253Y-13720484D01*
X12368396Y-13720484D02*
X12368396Y-13520484D01*
X12368396Y-13520484D02*
X12349348Y-13549055D01*
X12349348Y-13549055D02*
X12330301Y-13568103D01*
X12330301Y-13568103D02*
X12311253Y-13577627D01*
X12511253Y-13701436D02*
X12520777Y-13710960D01*
X12520777Y-13710960D02*
X12511253Y-13720484D01*
X12511253Y-13720484D02*
X12501729Y-13710960D01*
X12501729Y-13710960D02*
X12511253Y-13701436D01*
X12511253Y-13701436D02*
X12511253Y-13720484D01*
X12701729Y-13520484D02*
X12606491Y-13520484D01*
X12606491Y-13520484D02*
X12596967Y-13615722D01*
X12596967Y-13615722D02*
X12606491Y-13606198D01*
X12606491Y-13606198D02*
X12625539Y-13596674D01*
X12625539Y-13596674D02*
X12673158Y-13596674D01*
X12673158Y-13596674D02*
X12692205Y-13606198D01*
X12692205Y-13606198D02*
X12701729Y-13615722D01*
X12701729Y-13615722D02*
X12711253Y-13634769D01*
X12711253Y-13634769D02*
X12711253Y-13682388D01*
X12711253Y-13682388D02*
X12701729Y-13701436D01*
X12701729Y-13701436D02*
X12692205Y-13710960D01*
X12692205Y-13710960D02*
X12673158Y-13720484D01*
X12673158Y-13720484D02*
X12625539Y-13720484D01*
X12625539Y-13720484D02*
X12606491Y-13710960D01*
X12606491Y-13710960D02*
X12596967Y-13701436D01*
X12787443Y-13539531D02*
X12796967Y-13530008D01*
X12796967Y-13530008D02*
X12816015Y-13520484D01*
X12816015Y-13520484D02*
X12863634Y-13520484D01*
X12863634Y-13520484D02*
X12882682Y-13530008D01*
X12882682Y-13530008D02*
X12892205Y-13539531D01*
X12892205Y-13539531D02*
X12901729Y-13558579D01*
X12901729Y-13558579D02*
X12901729Y-13577627D01*
X12901729Y-13577627D02*
X12892205Y-13606198D01*
X12892205Y-13606198D02*
X12777920Y-13720484D01*
X12777920Y-13720484D02*
X12901729Y-13720484D01*
X13025539Y-13520484D02*
X13044586Y-13520484D01*
X13044586Y-13520484D02*
X13063634Y-13530008D01*
X13063634Y-13530008D02*
X13073158Y-13539531D01*
X13073158Y-13539531D02*
X13082682Y-13558579D01*
X13082682Y-13558579D02*
X13092205Y-13596674D01*
X13092205Y-13596674D02*
X13092205Y-13644293D01*
X13092205Y-13644293D02*
X13082682Y-13682388D01*
X13082682Y-13682388D02*
X13073158Y-13701436D01*
X13073158Y-13701436D02*
X13063634Y-13710960D01*
X13063634Y-13710960D02*
X13044586Y-13720484D01*
X13044586Y-13720484D02*
X13025539Y-13720484D01*
X13025539Y-13720484D02*
X13006491Y-13710960D01*
X13006491Y-13710960D02*
X12996967Y-13701436D01*
X12996967Y-13701436D02*
X12987443Y-13682388D01*
X12987443Y-13682388D02*
X12977920Y-13644293D01*
X12977920Y-13644293D02*
X12977920Y-13596674D01*
X12977920Y-13596674D02*
X12987443Y-13558579D01*
X12987443Y-13558579D02*
X12996967Y-13539531D01*
X12996967Y-13539531D02*
X13006491Y-13530008D01*
X13006491Y-13530008D02*
X13025539Y-13520484D01*
X13177920Y-13720484D02*
X13177920Y-13587150D01*
X13177920Y-13606198D02*
X13187443Y-13596674D01*
X13187443Y-13596674D02*
X13206491Y-13587150D01*
X13206491Y-13587150D02*
X13235063Y-13587150D01*
X13235063Y-13587150D02*
X13254110Y-13596674D01*
X13254110Y-13596674D02*
X13263634Y-13615722D01*
X13263634Y-13615722D02*
X13263634Y-13720484D01*
X13263634Y-13615722D02*
X13273158Y-13596674D01*
X13273158Y-13596674D02*
X13292205Y-13587150D01*
X13292205Y-13587150D02*
X13320777Y-13587150D01*
X13320777Y-13587150D02*
X13339824Y-13596674D01*
X13339824Y-13596674D02*
X13349348Y-13615722D01*
X13349348Y-13615722D02*
X13349348Y-13720484D01*
X13444586Y-13720484D02*
X13444586Y-13587150D01*
X13444586Y-13606198D02*
X13454110Y-13596674D01*
X13454110Y-13596674D02*
X13473158Y-13587150D01*
X13473158Y-13587150D02*
X13501729Y-13587150D01*
X13501729Y-13587150D02*
X13520777Y-13596674D01*
X13520777Y-13596674D02*
X13530301Y-13615722D01*
X13530301Y-13615722D02*
X13530301Y-13720484D01*
X13530301Y-13615722D02*
X13539824Y-13596674D01*
X13539824Y-13596674D02*
X13558872Y-13587150D01*
X13558872Y-13587150D02*
X13587443Y-13587150D01*
X13587443Y-13587150D02*
X13606491Y-13596674D01*
X13606491Y-13596674D02*
X13616015Y-13615722D01*
X13616015Y-13615722D02*
X13616015Y-13720484D01*
X14006491Y-13510960D02*
X13835063Y-13768103D01*
X14263634Y-13520484D02*
X14282682Y-13520484D01*
X14282682Y-13520484D02*
X14301729Y-13530008D01*
X14301729Y-13530008D02*
X14311253Y-13539531D01*
X14311253Y-13539531D02*
X14320777Y-13558579D01*
X14320777Y-13558579D02*
X14330301Y-13596674D01*
X14330301Y-13596674D02*
X14330301Y-13644293D01*
X14330301Y-13644293D02*
X14320777Y-13682388D01*
X14320777Y-13682388D02*
X14311253Y-13701436D01*
X14311253Y-13701436D02*
X14301729Y-13710960D01*
X14301729Y-13710960D02*
X14282682Y-13720484D01*
X14282682Y-13720484D02*
X14263634Y-13720484D01*
X14263634Y-13720484D02*
X14244586Y-13710960D01*
X14244586Y-13710960D02*
X14235063Y-13701436D01*
X14235063Y-13701436D02*
X14225539Y-13682388D01*
X14225539Y-13682388D02*
X14216015Y-13644293D01*
X14216015Y-13644293D02*
X14216015Y-13596674D01*
X14216015Y-13596674D02*
X14225539Y-13558579D01*
X14225539Y-13558579D02*
X14235063Y-13539531D01*
X14235063Y-13539531D02*
X14244586Y-13530008D01*
X14244586Y-13530008D02*
X14263634Y-13520484D01*
X14416015Y-13701436D02*
X14425539Y-13710960D01*
X14425539Y-13710960D02*
X14416015Y-13720484D01*
X14416015Y-13720484D02*
X14406491Y-13710960D01*
X14406491Y-13710960D02*
X14416015Y-13701436D01*
X14416015Y-13701436D02*
X14416015Y-13720484D01*
X14549348Y-13520484D02*
X14568396Y-13520484D01*
X14568396Y-13520484D02*
X14587444Y-13530008D01*
X14587444Y-13530008D02*
X14596967Y-13539531D01*
X14596967Y-13539531D02*
X14606491Y-13558579D01*
X14606491Y-13558579D02*
X14616015Y-13596674D01*
X14616015Y-13596674D02*
X14616015Y-13644293D01*
X14616015Y-13644293D02*
X14606491Y-13682388D01*
X14606491Y-13682388D02*
X14596967Y-13701436D01*
X14596967Y-13701436D02*
X14587444Y-13710960D01*
X14587444Y-13710960D02*
X14568396Y-13720484D01*
X14568396Y-13720484D02*
X14549348Y-13720484D01*
X14549348Y-13720484D02*
X14530301Y-13710960D01*
X14530301Y-13710960D02*
X14520777Y-13701436D01*
X14520777Y-13701436D02*
X14511253Y-13682388D01*
X14511253Y-13682388D02*
X14501729Y-13644293D01*
X14501729Y-13644293D02*
X14501729Y-13596674D01*
X14501729Y-13596674D02*
X14511253Y-13558579D01*
X14511253Y-13558579D02*
X14520777Y-13539531D01*
X14520777Y-13539531D02*
X14530301Y-13530008D01*
X14530301Y-13530008D02*
X14549348Y-13520484D01*
X14796967Y-13520484D02*
X14701729Y-13520484D01*
X14701729Y-13520484D02*
X14692206Y-13615722D01*
X14692206Y-13615722D02*
X14701729Y-13606198D01*
X14701729Y-13606198D02*
X14720777Y-13596674D01*
X14720777Y-13596674D02*
X14768396Y-13596674D01*
X14768396Y-13596674D02*
X14787444Y-13606198D01*
X14787444Y-13606198D02*
X14796967Y-13615722D01*
X14796967Y-13615722D02*
X14806491Y-13634769D01*
X14806491Y-13634769D02*
X14806491Y-13682388D01*
X14806491Y-13682388D02*
X14796967Y-13701436D01*
X14796967Y-13701436D02*
X14787444Y-13710960D01*
X14787444Y-13710960D02*
X14768396Y-13720484D01*
X14768396Y-13720484D02*
X14720777Y-13720484D01*
X14720777Y-13720484D02*
X14701729Y-13710960D01*
X14701729Y-13710960D02*
X14692206Y-13701436D01*
X14901729Y-13720484D02*
X14939825Y-13720484D01*
X14939825Y-13720484D02*
X14958872Y-13710960D01*
X14958872Y-13710960D02*
X14968396Y-13701436D01*
X14968396Y-13701436D02*
X14987444Y-13672865D01*
X14987444Y-13672865D02*
X14996967Y-13634769D01*
X14996967Y-13634769D02*
X14996967Y-13558579D01*
X14996967Y-13558579D02*
X14987444Y-13539531D01*
X14987444Y-13539531D02*
X14977920Y-13530008D01*
X14977920Y-13530008D02*
X14958872Y-13520484D01*
X14958872Y-13520484D02*
X14920777Y-13520484D01*
X14920777Y-13520484D02*
X14901729Y-13530008D01*
X14901729Y-13530008D02*
X14892206Y-13539531D01*
X14892206Y-13539531D02*
X14882682Y-13558579D01*
X14882682Y-13558579D02*
X14882682Y-13606198D01*
X14882682Y-13606198D02*
X14892206Y-13625246D01*
X14892206Y-13625246D02*
X14901729Y-13634769D01*
X14901729Y-13634769D02*
X14920777Y-13644293D01*
X14920777Y-13644293D02*
X14958872Y-13644293D01*
X14958872Y-13644293D02*
X14977920Y-13634769D01*
X14977920Y-13634769D02*
X14987444Y-13625246D01*
X14987444Y-13625246D02*
X14996967Y-13606198D01*
X15111253Y-13606198D02*
X15092206Y-13596674D01*
X15092206Y-13596674D02*
X15082682Y-13587150D01*
X15082682Y-13587150D02*
X15073158Y-13568103D01*
X15073158Y-13568103D02*
X15073158Y-13558579D01*
X15073158Y-13558579D02*
X15082682Y-13539531D01*
X15082682Y-13539531D02*
X15092206Y-13530008D01*
X15092206Y-13530008D02*
X15111253Y-13520484D01*
X15111253Y-13520484D02*
X15149348Y-13520484D01*
X15149348Y-13520484D02*
X15168396Y-13530008D01*
X15168396Y-13530008D02*
X15177920Y-13539531D01*
X15177920Y-13539531D02*
X15187444Y-13558579D01*
X15187444Y-13558579D02*
X15187444Y-13568103D01*
X15187444Y-13568103D02*
X15177920Y-13587150D01*
X15177920Y-13587150D02*
X15168396Y-13596674D01*
X15168396Y-13596674D02*
X15149348Y-13606198D01*
X15149348Y-13606198D02*
X15111253Y-13606198D01*
X15111253Y-13606198D02*
X15092206Y-13615722D01*
X15092206Y-13615722D02*
X15082682Y-13625246D01*
X15082682Y-13625246D02*
X15073158Y-13644293D01*
X15073158Y-13644293D02*
X15073158Y-13682388D01*
X15073158Y-13682388D02*
X15082682Y-13701436D01*
X15082682Y-13701436D02*
X15092206Y-13710960D01*
X15092206Y-13710960D02*
X15111253Y-13720484D01*
X15111253Y-13720484D02*
X15149348Y-13720484D01*
X15149348Y-13720484D02*
X15168396Y-13710960D01*
X15168396Y-13710960D02*
X15177920Y-13701436D01*
X15177920Y-13701436D02*
X15187444Y-13682388D01*
X15187444Y-13682388D02*
X15187444Y-13644293D01*
X15187444Y-13644293D02*
X15177920Y-13625246D01*
X15177920Y-13625246D02*
X15168396Y-13615722D01*
X15168396Y-13615722D02*
X15149348Y-13606198D01*
X15263634Y-13520484D02*
X15263634Y-13558579D01*
X15339825Y-13520484D02*
X15339825Y-13558579D01*
X15635063Y-13796674D02*
X15625539Y-13787150D01*
X15625539Y-13787150D02*
X15606491Y-13758579D01*
X15606491Y-13758579D02*
X15596968Y-13739531D01*
X15596968Y-13739531D02*
X15587444Y-13710960D01*
X15587444Y-13710960D02*
X15577920Y-13663341D01*
X15577920Y-13663341D02*
X15577920Y-13625246D01*
X15577920Y-13625246D02*
X15587444Y-13577627D01*
X15587444Y-13577627D02*
X15596968Y-13549055D01*
X15596968Y-13549055D02*
X15606491Y-13530008D01*
X15606491Y-13530008D02*
X15625539Y-13501436D01*
X15625539Y-13501436D02*
X15635063Y-13491912D01*
X15701729Y-13539531D02*
X15711253Y-13530008D01*
X15711253Y-13530008D02*
X15730301Y-13520484D01*
X15730301Y-13520484D02*
X15777920Y-13520484D01*
X15777920Y-13520484D02*
X15796968Y-13530008D01*
X15796968Y-13530008D02*
X15806491Y-13539531D01*
X15806491Y-13539531D02*
X15816015Y-13558579D01*
X15816015Y-13558579D02*
X15816015Y-13577627D01*
X15816015Y-13577627D02*
X15806491Y-13606198D01*
X15806491Y-13606198D02*
X15692206Y-13720484D01*
X15692206Y-13720484D02*
X15816015Y-13720484D01*
X16054110Y-13720484D02*
X16054110Y-13520484D01*
X16139825Y-13720484D02*
X16139825Y-13615722D01*
X16139825Y-13615722D02*
X16130301Y-13596674D01*
X16130301Y-13596674D02*
X16111253Y-13587150D01*
X16111253Y-13587150D02*
X16082682Y-13587150D01*
X16082682Y-13587150D02*
X16063634Y-13596674D01*
X16063634Y-13596674D02*
X16054110Y-13606198D01*
X16263634Y-13720484D02*
X16244587Y-13710960D01*
X16244587Y-13710960D02*
X16235063Y-13701436D01*
X16235063Y-13701436D02*
X16225539Y-13682388D01*
X16225539Y-13682388D02*
X16225539Y-13625246D01*
X16225539Y-13625246D02*
X16235063Y-13606198D01*
X16235063Y-13606198D02*
X16244587Y-13596674D01*
X16244587Y-13596674D02*
X16263634Y-13587150D01*
X16263634Y-13587150D02*
X16292206Y-13587150D01*
X16292206Y-13587150D02*
X16311253Y-13596674D01*
X16311253Y-13596674D02*
X16320777Y-13606198D01*
X16320777Y-13606198D02*
X16330301Y-13625246D01*
X16330301Y-13625246D02*
X16330301Y-13682388D01*
X16330301Y-13682388D02*
X16320777Y-13701436D01*
X16320777Y-13701436D02*
X16311253Y-13710960D01*
X16311253Y-13710960D02*
X16292206Y-13720484D01*
X16292206Y-13720484D02*
X16263634Y-13720484D01*
X16444587Y-13720484D02*
X16425539Y-13710960D01*
X16425539Y-13710960D02*
X16416015Y-13691912D01*
X16416015Y-13691912D02*
X16416015Y-13520484D01*
X16596968Y-13710960D02*
X16577920Y-13720484D01*
X16577920Y-13720484D02*
X16539825Y-13720484D01*
X16539825Y-13720484D02*
X16520777Y-13710960D01*
X16520777Y-13710960D02*
X16511253Y-13691912D01*
X16511253Y-13691912D02*
X16511253Y-13615722D01*
X16511253Y-13615722D02*
X16520777Y-13596674D01*
X16520777Y-13596674D02*
X16539825Y-13587150D01*
X16539825Y-13587150D02*
X16577920Y-13587150D01*
X16577920Y-13587150D02*
X16596968Y-13596674D01*
X16596968Y-13596674D02*
X16606491Y-13615722D01*
X16606491Y-13615722D02*
X16606491Y-13634769D01*
X16606491Y-13634769D02*
X16511253Y-13653817D01*
X16682682Y-13710960D02*
X16701730Y-13720484D01*
X16701730Y-13720484D02*
X16739825Y-13720484D01*
X16739825Y-13720484D02*
X16758872Y-13710960D01*
X16758872Y-13710960D02*
X16768396Y-13691912D01*
X16768396Y-13691912D02*
X16768396Y-13682388D01*
X16768396Y-13682388D02*
X16758872Y-13663341D01*
X16758872Y-13663341D02*
X16739825Y-13653817D01*
X16739825Y-13653817D02*
X16711253Y-13653817D01*
X16711253Y-13653817D02*
X16692206Y-13644293D01*
X16692206Y-13644293D02*
X16682682Y-13625246D01*
X16682682Y-13625246D02*
X16682682Y-13615722D01*
X16682682Y-13615722D02*
X16692206Y-13596674D01*
X16692206Y-13596674D02*
X16711253Y-13587150D01*
X16711253Y-13587150D02*
X16739825Y-13587150D01*
X16739825Y-13587150D02*
X16758872Y-13596674D01*
X16835063Y-13796674D02*
X16844587Y-13787150D01*
X16844587Y-13787150D02*
X16863634Y-13758579D01*
X16863634Y-13758579D02*
X16873158Y-13739531D01*
X16873158Y-13739531D02*
X16882682Y-13710960D01*
X16882682Y-13710960D02*
X16892206Y-13663341D01*
X16892206Y-13663341D02*
X16892206Y-13625246D01*
X16892206Y-13625246D02*
X16882682Y-13577627D01*
X16882682Y-13577627D02*
X16873158Y-13549055D01*
X16873158Y-13549055D02*
X16863634Y-13530008D01*
X16863634Y-13530008D02*
X16844587Y-13501436D01*
X16844587Y-13501436D02*
X16835063Y-13491912D01*
M02*
