%TF.GenerationSoftware,KiCad,Pcbnew,7.0.7*%
%TF.CreationDate,2024-05-03T12:55:33+03:00*%
%TF.ProjectId,Flip-Flop_lab_project,466c6970-2d46-46c6-9f70-5f6c61625f70,rev?*%
%TF.SameCoordinates,Original*%
%TF.FileFunction,Copper,L2,Bot*%
%TF.FilePolarity,Positive*%
%FSLAX46Y46*%
G04 Gerber Fmt 4.6, Leading zero omitted, Abs format (unit mm)*
G04 Created by KiCad (PCBNEW 7.0.7) date 2024-05-03 12:55:33*
%MOMM*%
%LPD*%
G01*
G04 APERTURE LIST*
%TA.AperFunction,ComponentPad*%
%ADD10C,1.600000*%
%TD*%
%TA.AperFunction,ComponentPad*%
%ADD11O,1.600000X1.600000*%
%TD*%
%TA.AperFunction,ComponentPad*%
%ADD12R,1.500000X1.050000*%
%TD*%
%TA.AperFunction,ComponentPad*%
%ADD13O,1.500000X1.050000*%
%TD*%
%TA.AperFunction,ComponentPad*%
%ADD14C,1.440000*%
%TD*%
%TA.AperFunction,ComponentPad*%
%ADD15R,1.600000X1.600000*%
%TD*%
%TA.AperFunction,ComponentPad*%
%ADD16R,1.800000X1.800000*%
%TD*%
%TA.AperFunction,ComponentPad*%
%ADD17C,1.800000*%
%TD*%
%TA.AperFunction,ComponentPad*%
%ADD18R,3.000000X3.000000*%
%TD*%
%TA.AperFunction,ComponentPad*%
%ADD19C,3.000000*%
%TD*%
%TA.AperFunction,Conductor*%
%ADD20C,1.000000*%
%TD*%
G04 APERTURE END LIST*
D10*
%TO.P,R1,1*%
%TO.N,Net-(D1-K)*%
X165100000Y-96520000D03*
D11*
%TO.P,R1,2*%
%TO.N,Net-(Q1-E)*%
X165100000Y-106680000D03*
%TD*%
D12*
%TO.P,Q1,1,C*%
%TO.N,GND*%
X128320800Y-115011200D03*
D13*
%TO.P,Q1,2,B*%
%TO.N,Net-(Q1-B)*%
X128270000Y-113030000D03*
%TO.P,Q1,3,E*%
%TO.N,Net-(Q1-E)*%
X128270000Y-110998000D03*
%TD*%
D12*
%TO.P,Q2,1,C*%
%TO.N,Net-(Q2-C)*%
X165100000Y-115570000D03*
D13*
%TO.P,Q2,2,B*%
%TO.N,Net-(Q2-B)*%
X165100000Y-113741200D03*
%TO.P,Q2,3,E*%
%TO.N,GND*%
X165100000Y-111760000D03*
%TD*%
D14*
%TO.P,RV1,1,1*%
%TO.N,unconnected-(RV1-Pad1)*%
X144780000Y-83820000D03*
%TO.P,RV1,2,2*%
%TO.N,+9V*%
X142240000Y-78740000D03*
%TO.P,RV1,3,3*%
%TO.N,Net-(R3-Pad1)*%
X139700000Y-83820000D03*
%TD*%
D15*
%TO.P,C2,1*%
%TO.N,Net-(Q2-C)*%
X144780000Y-106680000D03*
D10*
%TO.P,C2,2*%
%TO.N,Net-(Q1-B)*%
X142280000Y-106680000D03*
%TD*%
%TO.P,R4,1*%
%TO.N,Net-(D2-K)*%
X134620000Y-96520000D03*
D11*
%TO.P,R4,2*%
%TO.N,Net-(Q2-C)*%
X134620000Y-106680000D03*
%TD*%
D10*
%TO.P,R2,1*%
%TO.N,Net-(R2-Pad1)*%
X154940000Y-88900000D03*
D11*
%TO.P,R2,2*%
%TO.N,Net-(Q1-B)*%
X154940000Y-99060000D03*
%TD*%
D14*
%TO.P,RV2,1,1*%
%TO.N,unconnected-(RV2-Pad1)*%
X160020000Y-83820000D03*
%TO.P,RV2,2,2*%
%TO.N,+9V*%
X157480000Y-78740000D03*
%TO.P,RV2,3,3*%
%TO.N,Net-(R2-Pad1)*%
X154940000Y-83820000D03*
%TD*%
D16*
%TO.P,D1,1,K*%
%TO.N,Net-(D1-K)*%
X165890000Y-91440000D03*
D17*
%TO.P,D1,2,A*%
%TO.N,+9V*%
X165890000Y-88900000D03*
%TD*%
D18*
%TO.P,J1,1,Pin_1*%
%TO.N,+9V*%
X125730000Y-99060000D03*
D19*
%TO.P,J1,2,Pin_2*%
%TO.N,GND*%
X125730000Y-104140000D03*
%TD*%
D10*
%TO.P,R3,1*%
%TO.N,Net-(R3-Pad1)*%
X144780000Y-88900000D03*
D11*
%TO.P,R3,2*%
%TO.N,Net-(Q2-B)*%
X144780000Y-99060000D03*
%TD*%
D16*
%TO.P,D2,1,K*%
%TO.N,Net-(D2-K)*%
X133830000Y-91440000D03*
D17*
%TO.P,D2,2,A*%
%TO.N,+9V*%
X133830000Y-88900000D03*
%TD*%
D15*
%TO.P,C1,1*%
%TO.N,Net-(Q2-B)*%
X157480000Y-106680000D03*
D10*
%TO.P,C1,2*%
%TO.N,Net-(Q1-E)*%
X154980000Y-106680000D03*
%TD*%
D20*
%TO.N,Net-(Q2-B)*%
X154940000Y-93980000D02*
X157480000Y-96520000D01*
X149860000Y-93980000D02*
X154940000Y-93980000D01*
X144780000Y-99060000D02*
X149860000Y-93980000D01*
X157480000Y-96520000D02*
X157480000Y-101600000D01*
%TO.N,Net-(Q1-E)*%
X161290000Y-105410000D02*
X162560000Y-106680000D01*
X161290000Y-92710000D02*
X161290000Y-105410000D01*
X160020000Y-91440000D02*
X161290000Y-92710000D01*
X146050000Y-91440000D02*
X160020000Y-91440000D01*
X138430000Y-99060000D02*
X146050000Y-91440000D01*
X129540000Y-102870000D02*
X133350000Y-99060000D01*
X129540000Y-109608000D02*
X129540000Y-102870000D01*
X129600000Y-109668000D02*
X129540000Y-109608000D01*
X133350000Y-99060000D02*
X138430000Y-99060000D01*
X128270000Y-110998000D02*
X129600000Y-109668000D01*
%TO.N,GND*%
X168910000Y-116840000D02*
X166370000Y-119380000D01*
X168910000Y-110490000D02*
X168910000Y-116840000D01*
X166370000Y-119380000D02*
X128270000Y-119380000D01*
X165100000Y-109220000D02*
X167640000Y-109220000D01*
X167640000Y-109220000D02*
X168910000Y-110490000D01*
X165100000Y-111760000D02*
X165100000Y-109220000D01*
%TO.N,Net-(Q1-B)*%
X142280000Y-102870000D02*
X142280000Y-106680000D01*
X143550000Y-101600000D02*
X142280000Y-102870000D01*
X148590000Y-101600000D02*
X143550000Y-101600000D01*
X132720000Y-104770000D02*
X134620000Y-102870000D01*
X134620000Y-102870000D02*
X142280000Y-102870000D01*
X132720000Y-109940000D02*
X132720000Y-104770000D01*
X128270000Y-113030000D02*
X129630000Y-113030000D01*
X129630000Y-113030000D02*
X132720000Y-109940000D01*
%TO.N,+9V*%
X130810000Y-88900000D02*
X133830000Y-88900000D01*
X125730000Y-93980000D02*
X130810000Y-88900000D01*
X125730000Y-99060000D02*
X125730000Y-93980000D01*
%TO.N,GND*%
X125730000Y-106680000D02*
X125730000Y-104140000D01*
X124460000Y-107950000D02*
X125730000Y-106680000D01*
X124460000Y-116840000D02*
X124460000Y-107950000D01*
%TO.N,Net-(Q2-C)*%
X144780000Y-111760000D02*
X139700000Y-111760000D01*
X144780000Y-106680000D02*
X144780000Y-111760000D01*
X139700000Y-111760000D02*
X134620000Y-106680000D01*
%TO.N,Net-(Q1-B)*%
X151130000Y-99060000D02*
X148590000Y-101600000D01*
X154940000Y-99060000D02*
X151130000Y-99060000D01*
%TO.N,Net-(Q2-C)*%
X163830000Y-116840000D02*
X146050000Y-116840000D01*
X146050000Y-116840000D02*
X140970000Y-111760000D01*
X165100000Y-115570000D02*
X163830000Y-116840000D01*
%TO.N,Net-(Q2-B)*%
X154940000Y-101600000D02*
X157480000Y-101600000D01*
X149860000Y-113030000D02*
X149860000Y-106680000D01*
X150571200Y-113741200D02*
X149860000Y-113030000D01*
X165100000Y-113741200D02*
X150571200Y-113741200D01*
X149860000Y-106680000D02*
X154940000Y-101600000D01*
%TO.N,GND*%
X128320800Y-119329200D02*
X128270000Y-119380000D01*
X128320800Y-115011200D02*
X128320800Y-119329200D01*
X127000000Y-119380000D02*
X128270000Y-119380000D01*
X124460000Y-116840000D02*
X127000000Y-119380000D01*
%TO.N,Net-(D2-K)*%
X133830000Y-95730000D02*
X134620000Y-96520000D01*
X133830000Y-91440000D02*
X133830000Y-95730000D01*
%TO.N,Net-(Q1-E)*%
X162560000Y-108580000D02*
X162560000Y-106680000D01*
X155580000Y-108580000D02*
X162560000Y-108580000D01*
X154980000Y-107980000D02*
X155580000Y-108580000D01*
X154980000Y-106680000D02*
X154980000Y-107980000D01*
X162560000Y-106680000D02*
X165100000Y-106680000D01*
%TO.N,Net-(Q2-B)*%
X157480000Y-101600000D02*
X157480000Y-106680000D01*
%TO.N,Net-(D1-K)*%
X165890000Y-95730000D02*
X165100000Y-96520000D01*
X165890000Y-91440000D02*
X165890000Y-95730000D01*
%TO.N,Net-(R2-Pad1)*%
X154940000Y-83820000D02*
X154940000Y-88900000D01*
%TO.N,Net-(R3-Pad1)*%
X139700000Y-83820000D02*
X144780000Y-88900000D01*
%TO.N,+9V*%
X158498233Y-78740000D02*
X165890000Y-86131767D01*
X165890000Y-86131767D02*
X165890000Y-88900000D01*
X157480000Y-78740000D02*
X158498233Y-78740000D01*
X142240000Y-78740000D02*
X157480000Y-78740000D01*
X133830000Y-82070000D02*
X133830000Y-88900000D01*
X142240000Y-78740000D02*
X137160000Y-78740000D01*
X137160000Y-78740000D02*
X133830000Y-82070000D01*
%TD*%
M02*
